<svg xmlns="http://www.w3.org/2000/svg" xmlns:xlink="http://www.w3.org/1999/xlink" width="500" zoomAndPan="magnify" viewBox="0 0 375 374.999991" height="500" preserveAspectRatio="xMidYMid meet" version="1.0"><defs><g/><clipPath id="8caae931a6"><path d="M 37.5 37.5 L 337.5 37.5 L 337.5 337.5 L 37.5 337.5 Z M 37.5 37.5 " clip-rule="nonzero"/></clipPath><clipPath id="5b28540a96"><path d="M 187.5 37.5 C 104.65625 37.5 37.5 104.65625 37.5 187.5 C 37.5 270.34375 104.65625 337.5 187.5 337.5 C 270.34375 337.5 337.5 270.34375 337.5 187.5 C 337.5 104.65625 270.34375 37.5 187.5 37.5 Z M 187.5 37.5 " clip-rule="nonzero"/></clipPath><clipPath id="8aeab2ae7d"><path d="M 51.957031 47.371094 L 322.707031 47.371094 L 322.707031 152.371094 L 51.957031 152.371094 Z M 51.957031 47.371094 " clip-rule="nonzero"/></clipPath><clipPath id="0f049ea082"><path d="M 62 58 L 316 58 L 316 152.371094 L 62 152.371094 Z M 62 58 " clip-rule="nonzero"/></clipPath><clipPath id="fb9a8bfa80"><path d="M 137 92 L 238 92 L 238 152.28125 L 137 152.28125 Z M 137 92 " clip-rule="nonzero"/></clipPath><clipPath id="4df42ff1cd"><path d="M 185 74.28125 L 190 74.28125 L 190 90 L 185 90 Z M 185 74.28125 " clip-rule="nonzero"/></clipPath><clipPath id="6b18df31d3"><path d="M 191 74.28125 L 196 74.28125 L 196 90 L 191 90 Z M 191 74.28125 " clip-rule="nonzero"/></clipPath><clipPath id="32ed05ef7a"><path d="M 197 74.28125 L 202 74.28125 L 202 90 L 197 90 Z M 197 74.28125 " clip-rule="nonzero"/></clipPath><clipPath id="843fb63b0e"><path d="M 173 74.28125 L 178 74.28125 L 178 90 L 173 90 Z M 173 74.28125 " clip-rule="nonzero"/></clipPath><clipPath id="77a6a69283"><path d="M 179 74.28125 L 184 74.28125 L 184 90 L 179 90 Z M 179 74.28125 " clip-rule="nonzero"/></clipPath><clipPath id="6e131c809a"><path d="M 52.285156 222.621094 L 323.035156 222.621094 L 323.035156 327.621094 L 52.285156 327.621094 Z M 52.285156 222.621094 " clip-rule="nonzero"/></clipPath><clipPath id="e2d25c1920"><path d="M 59 222.621094 L 313 222.621094 L 313 317 L 59 317 Z M 59 222.621094 " clip-rule="nonzero"/></clipPath><clipPath id="364c028ec7"><path d="M 75 113 L 149 113 L 149 168 L 75 168 Z M 75 113 " clip-rule="nonzero"/></clipPath><clipPath id="2ef950a5c1"><path d="M 60.75 130.859375 L 132.644531 98.726562 L 149.476562 136.386719 L 77.582031 168.519531 Z M 60.75 130.859375 " clip-rule="nonzero"/></clipPath><clipPath id="594e7af1d6"><path d="M 60.75 130.859375 L 132.644531 98.726562 L 149.476562 136.386719 L 77.582031 168.519531 Z M 60.75 130.859375 " clip-rule="nonzero"/></clipPath><clipPath id="a37f56e59d"><path d="M 82 136 L 93 136 L 93 147 L 82 147 Z M 82 136 " clip-rule="nonzero"/></clipPath><clipPath id="da6b89005a"><path d="M 60.75 130.859375 L 132.644531 98.726562 L 149.476562 136.386719 L 77.582031 168.519531 Z M 60.75 130.859375 " clip-rule="nonzero"/></clipPath><clipPath id="fc66be2c28"><path d="M 60.75 130.859375 L 132.644531 98.726562 L 149.476562 136.386719 L 77.582031 168.519531 Z M 60.75 130.859375 " clip-rule="nonzero"/></clipPath><clipPath id="8cd8e79eb6"><path d="M 80 147 L 83 147 L 83 153 L 80 153 Z M 80 147 " clip-rule="nonzero"/></clipPath><clipPath id="26e30ac9c0"><path d="M 60.75 130.859375 L 132.644531 98.726562 L 149.476562 136.386719 L 77.582031 168.519531 Z M 60.75 130.859375 " clip-rule="nonzero"/></clipPath><clipPath id="c036c32531"><path d="M 60.75 130.859375 L 132.644531 98.726562 L 149.476562 136.386719 L 77.582031 168.519531 Z M 60.75 130.859375 " clip-rule="nonzero"/></clipPath><clipPath id="93c11b9827"><path d="M 226 113 L 300 113 L 300 168 L 226 168 Z M 226 113 " clip-rule="nonzero"/></clipPath><clipPath id="e6c686b52f"><path d="M 242.257812 99.058594 L 314.4375 130.554688 L 297.9375 168.359375 L 225.761719 136.863281 Z M 242.257812 99.058594 " clip-rule="nonzero"/></clipPath><clipPath id="4ceb55e809"><path d="M 242.257812 99.058594 L 314.4375 130.554688 L 297.9375 168.359375 L 225.761719 136.863281 Z M 242.257812 99.058594 " clip-rule="nonzero"/></clipPath><clipPath id="aae22218b3"><path d="M 245 123 L 259 123 L 259 128 L 245 128 Z M 245 123 " clip-rule="nonzero"/></clipPath><clipPath id="43a0e6dbdf"><path d="M 242.257812 99.058594 L 314.4375 130.554688 L 297.9375 168.359375 L 225.761719 136.863281 Z M 242.257812 99.058594 " clip-rule="nonzero"/></clipPath><clipPath id="4f9991ec91"><path d="M 242.257812 99.058594 L 314.4375 130.554688 L 297.9375 168.359375 L 225.761719 136.863281 Z M 242.257812 99.058594 " clip-rule="nonzero"/></clipPath><clipPath id="44a8944fda"><path d="M 239 125 L 245 125 L 245 130 L 239 130 Z M 239 125 " clip-rule="nonzero"/></clipPath><clipPath id="5b8ef15f5d"><path d="M 242.257812 99.058594 L 314.4375 130.554688 L 297.9375 168.359375 L 225.761719 136.863281 Z M 242.257812 99.058594 " clip-rule="nonzero"/></clipPath><clipPath id="b763f29940"><path d="M 242.257812 99.058594 L 314.4375 130.554688 L 297.9375 168.359375 L 225.761719 136.863281 Z M 242.257812 99.058594 " clip-rule="nonzero"/></clipPath></defs><g clip-path="url(#8caae931a6)"><g clip-path="url(#5b28540a96)"><path fill="#e6e6e6" d="M 37.5 37.5 L 337.5 37.5 L 337.5 337.5 L 37.5 337.5 Z M 37.5 37.5 " fill-opacity="1" fill-rule="nonzero"/></g></g><g clip-path="url(#8aeab2ae7d)"><path fill="#0f0f0f" d="M 189.105469 47.371094 C 113.480469 47.371094 51.957031 108.898438 51.957031 184.523438 C 51.957031 260.148438 113.480469 321.671875 189.105469 321.671875 C 264.730469 321.671875 326.257812 260.148438 326.257812 184.523438 C 326.257812 108.898438 264.730469 47.371094 189.105469 47.371094 Z M 189.105469 318.097656 C 115.453125 318.097656 55.53125 258.175781 55.53125 184.523438 C 55.53125 110.871094 115.453125 50.949219 189.105469 50.949219 C 262.757812 50.949219 322.683594 110.871094 322.683594 184.523438 C 322.683594 258.175781 262.757812 318.097656 189.105469 318.097656 Z M 189.105469 318.097656 " fill-opacity="1" fill-rule="nonzero"/></g><g clip-path="url(#0f049ea082)"><path fill="#0f0f0f" d="M 189.105469 58.078125 C 119.382812 58.078125 62.664062 114.800781 62.664062 184.523438 C 62.664062 254.246094 119.386719 310.96875 189.105469 310.96875 C 258.828125 310.96875 315.546875 254.242188 315.546875 184.523438 C 315.546875 114.804688 258.828125 58.078125 189.105469 58.078125 Z M 189.105469 58.078125 " fill-opacity="1" fill-rule="nonzero"/></g><path fill="#e6e6e6" d="M 205.636719 106.800781 L 197.902344 106.800781 C 197.28125 106.800781 196.777344 107.304688 196.777344 107.929688 L 196.777344 112.0625 C 196.777344 113.46875 195.632812 114.613281 194.222656 114.613281 L 180.773438 114.613281 C 179.367188 114.613281 178.222656 113.46875 178.222656 112.0625 L 178.222656 107.929688 C 178.222656 107.304688 177.71875 106.800781 177.09375 106.800781 L 169.363281 106.800781 C 168.742188 106.800781 168.238281 107.304688 168.238281 107.929688 L 168.238281 115.136719 C 168.238281 119.296875 171.621094 122.679688 175.78125 122.679688 L 199.21875 122.679688 C 203.375 122.679688 206.761719 119.296875 206.761719 115.136719 L 206.761719 107.929688 C 206.761719 107.304688 206.253906 106.800781 205.632812 106.800781 Z M 204.507812 115.136719 C 204.507812 118.054688 202.136719 120.425781 199.21875 120.425781 L 175.78125 120.425781 C 172.863281 120.425781 170.488281 118.054688 170.488281 115.136719 L 170.488281 109.054688 L 175.972656 109.054688 L 175.972656 112.0625 C 175.972656 114.710938 178.125 116.867188 180.773438 116.867188 L 194.226562 116.867188 C 196.875 116.867188 199.03125 114.710938 199.03125 112.0625 L 199.03125 109.054688 L 204.511719 109.054688 L 204.511719 115.136719 Z M 204.507812 115.136719 " fill-opacity="1" fill-rule="nonzero"/><path fill="#e6e6e6" d="M 147.171875 114.246094 C 145.652344 111.171875 144.65625 107.898438 144.214844 104.519531 C 144.132812 103.902344 143.566406 103.472656 142.949219 103.550781 C 142.335938 103.632812 141.902344 104.199219 141.980469 104.8125 C 142.457031 108.4375 143.523438 111.945312 145.152344 115.242188 C 145.347656 115.640625 145.746094 115.871094 146.164062 115.871094 C 146.328125 115.871094 146.5 115.832031 146.660156 115.753906 C 147.21875 115.476562 147.445312 114.804688 147.171875 114.246094 Z M 147.171875 114.246094 " fill-opacity="1" fill-rule="nonzero"/><path fill="#e6e6e6" d="M 149.191406 117.753906 C 148.847656 117.234375 148.148438 117.097656 147.632812 117.441406 C 147.113281 117.785156 146.972656 118.484375 147.320312 119.003906 C 148.351562 120.554688 149.523438 122.027344 150.796875 123.386719 C 151.015625 123.621094 151.316406 123.742188 151.617188 123.742188 C 151.894531 123.742188 152.167969 123.640625 152.386719 123.433594 C 152.839844 123.007812 152.863281 122.296875 152.4375 121.84375 C 151.25 120.578125 150.15625 119.203125 149.191406 117.753906 Z M 149.191406 117.753906 " fill-opacity="1" fill-rule="nonzero"/><g clip-path="url(#fb9a8bfa80)"><path fill="#e6e6e6" d="M 237.332031 163.117188 L 219.453125 132.945312 C 230.570312 126.230469 237.578125 114.160156 237.792969 101.191406 C 237.808594 100.953125 237.808594 100.714844 237.808594 100.476562 C 237.808594 95.847656 234.042969 92.078125 229.414062 92.078125 L 145.582031 92.078125 C 140.953125 92.078125 137.1875 95.847656 137.1875 100.476562 C 137.1875 100.714844 137.1875 100.953125 137.199219 101.140625 C 137.417969 114.164062 144.425781 126.234375 155.542969 132.945312 L 137.664062 163.121094 C 136.851562 164.5 136.839844 166.160156 137.636719 167.554688 C 138.429688 168.941406 139.859375 169.769531 141.453125 169.769531 C 143 169.769531 144.449219 168.941406 145.242188 167.605469 L 163.589844 136.621094 C 167.300781 137.8125 171.179688 138.425781 175.136719 138.425781 L 199.863281 138.425781 C 203.820312 138.425781 207.699219 137.8125 211.40625 136.621094 L 229.757812 167.609375 C 230.550781 168.941406 232 169.769531 233.542969 169.769531 C 235.140625 169.769531 236.570312 168.941406 237.359375 167.554688 C 238.15625 166.160156 238.148438 164.503906 237.332031 163.117188 Z M 145.582031 94.332031 L 229.414062 94.332031 C 232.640625 94.332031 235.289062 96.832031 235.535156 99.996094 L 139.464844 99.996094 C 139.710938 96.832031 142.359375 94.332031 145.585938 94.332031 Z M 143.304688 166.457031 C 142.917969 167.113281 142.207031 167.519531 141.453125 167.519531 C 140.675781 167.519531 139.976562 167.113281 139.589844 166.4375 C 139.199219 165.753906 139.207031 164.941406 139.601562 164.265625 L 157.496094 134.066406 C 158.78125 134.746094 160.09375 135.351562 161.421875 135.863281 Z M 175.136719 136.175781 C 171.121094 136.175781 167.1875 135.511719 163.441406 134.207031 C 161.464844 133.535156 159.511719 132.652344 157.632812 131.582031 C 146.980469 125.585938 140.128906 114.441406 139.511719 102.246094 L 235.488281 102.246094 C 234.886719 114.414062 228.03125 125.578125 217.359375 131.582031 C 215.484375 132.652344 213.53125 133.535156 211.546875 134.210938 C 207.808594 135.515625 203.878906 136.175781 199.863281 136.175781 Z M 235.40625 166.4375 C 235.019531 167.113281 234.320312 167.519531 233.542969 167.519531 C 232.789062 167.519531 232.082031 167.113281 231.691406 166.460938 L 213.574219 135.863281 C 214.90625 135.351562 216.21875 134.746094 217.5 134.066406 L 235.394531 164.261719 C 235.792969 164.941406 235.796875 165.753906 235.40625 166.4375 Z M 235.40625 166.4375 " fill-opacity="1" fill-rule="nonzero"/></g><g clip-path="url(#4df42ff1cd)"><path fill="#e6e6e6" d="M 185.246094 83.828125 C 185.246094 84.144531 185.382812 84.449219 185.617188 84.664062 L 186.949219 85.871094 L 185.617188 87.078125 C 185.15625 87.496094 185.121094 88.207031 185.539062 88.667969 C 185.761719 88.914062 186.066406 89.039062 186.375 89.039062 C 186.644531 89.039062 186.914062 88.945312 187.128906 88.75 L 189.382812 86.707031 C 189.617188 86.496094 189.75 86.191406 189.75 85.875 C 189.75 85.554688 189.617188 85.253906 189.382812 85.039062 L 188.050781 83.832031 L 189.382812 82.625 C 189.617188 82.410156 189.753906 82.109375 189.753906 81.789062 C 189.753906 81.472656 189.617188 81.167969 189.382812 80.957031 L 188.046875 79.742188 L 189.382812 78.527344 C 189.617188 78.3125 189.75 78.011719 189.75 77.695312 C 189.75 77.375 189.617188 77.074219 189.382812 76.859375 L 187.132812 74.8125 C 186.671875 74.394531 185.960938 74.429688 185.539062 74.886719 C 185.121094 75.347656 185.15625 76.058594 185.617188 76.480469 L 186.953125 77.695312 L 185.617188 78.910156 C 185.382812 79.125 185.25 79.425781 185.25 79.746094 C 185.25 80.0625 185.382812 80.363281 185.617188 80.578125 L 186.949219 81.789062 L 185.617188 82.996094 C 185.382812 83.207031 185.25 83.511719 185.25 83.828125 Z M 185.246094 83.828125 " fill-opacity="1" fill-rule="nonzero"/></g><g clip-path="url(#6b18df31d3)"><path fill="#e6e6e6" d="M 191.355469 83.828125 C 191.355469 84.144531 191.488281 84.449219 191.722656 84.664062 L 193.058594 85.871094 L 191.726562 87.078125 C 191.265625 87.496094 191.230469 88.207031 191.648438 88.667969 C 191.871094 88.914062 192.175781 89.039062 192.480469 89.039062 C 192.75 89.039062 193.023438 88.945312 193.238281 88.75 L 195.488281 86.707031 C 195.726562 86.496094 195.859375 86.191406 195.859375 85.875 C 195.859375 85.554688 195.726562 85.253906 195.492188 85.039062 L 194.160156 83.832031 L 195.492188 82.625 C 195.726562 82.410156 195.859375 82.109375 195.859375 81.789062 C 195.859375 81.472656 195.726562 81.167969 195.492188 80.957031 L 194.15625 79.742188 L 195.492188 78.527344 C 195.726562 78.3125 195.859375 78.011719 195.859375 77.695312 C 195.859375 77.375 195.726562 77.074219 195.492188 76.859375 L 193.238281 74.8125 C 192.78125 74.394531 192.066406 74.429688 191.648438 74.886719 C 191.230469 75.347656 191.265625 76.058594 191.722656 76.480469 L 193.0625 77.695312 L 191.722656 78.910156 C 191.492188 79.125 191.355469 79.425781 191.355469 79.746094 C 191.355469 80.0625 191.492188 80.363281 191.726562 80.578125 L 193.058594 81.789062 L 191.726562 82.996094 C 191.492188 83.207031 191.355469 83.511719 191.355469 83.828125 Z M 191.355469 83.828125 " fill-opacity="1" fill-rule="nonzero"/></g><g clip-path="url(#32ed05ef7a)"><path fill="#e6e6e6" d="M 197.464844 83.828125 C 197.464844 84.144531 197.597656 84.449219 197.832031 84.664062 L 199.167969 85.871094 L 197.835938 87.078125 C 197.375 87.496094 197.339844 88.207031 197.757812 88.667969 C 197.980469 88.914062 198.285156 89.039062 198.589844 89.039062 C 198.859375 89.039062 199.128906 88.945312 199.347656 88.75 L 201.597656 86.707031 C 201.835938 86.496094 201.96875 86.191406 201.96875 85.875 C 201.96875 85.554688 201.835938 85.253906 201.601562 85.039062 L 200.269531 83.832031 L 201.601562 82.625 C 201.835938 82.410156 201.96875 82.109375 201.96875 81.789062 C 201.96875 81.472656 201.835938 81.167969 201.601562 80.957031 L 200.265625 79.742188 L 201.601562 78.527344 C 201.835938 78.3125 201.96875 78.011719 201.96875 77.695312 C 201.96875 77.375 201.835938 77.074219 201.601562 76.859375 L 199.347656 74.8125 C 198.890625 74.394531 198.175781 74.429688 197.757812 74.886719 C 197.339844 75.347656 197.375 76.058594 197.832031 76.480469 L 199.171875 77.695312 L 197.832031 78.910156 C 197.597656 79.125 197.464844 79.425781 197.464844 79.746094 C 197.464844 80.0625 197.597656 80.363281 197.835938 80.578125 L 199.167969 81.789062 L 197.835938 82.996094 C 197.601562 83.207031 197.464844 83.511719 197.464844 83.828125 Z M 197.464844 83.828125 " fill-opacity="1" fill-rule="nonzero"/></g><g clip-path="url(#843fb63b0e)"><path fill="#e6e6e6" d="M 173.03125 83.828125 C 173.03125 84.144531 173.164062 84.449219 173.398438 84.664062 L 174.730469 85.871094 L 173.398438 87.078125 C 172.941406 87.496094 172.90625 88.207031 173.324219 88.667969 C 173.542969 88.914062 173.851562 89.039062 174.15625 89.039062 C 174.425781 89.039062 174.695312 88.945312 174.914062 88.75 L 177.164062 86.707031 C 177.398438 86.496094 177.535156 86.191406 177.535156 85.875 C 177.535156 85.554688 177.402344 85.253906 177.164062 85.039062 L 175.832031 83.832031 L 177.164062 82.625 C 177.402344 82.410156 177.535156 82.109375 177.535156 81.789062 C 177.535156 81.472656 177.402344 81.167969 177.167969 80.957031 L 175.832031 79.742188 L 177.167969 78.527344 C 177.402344 78.3125 177.535156 78.011719 177.535156 77.695312 C 177.535156 77.375 177.402344 77.074219 177.167969 76.859375 L 174.914062 74.8125 C 174.457031 74.394531 173.742188 74.429688 173.324219 74.886719 C 172.90625 75.347656 172.9375 76.058594 173.398438 76.480469 L 174.734375 77.695312 L 173.398438 78.910156 C 173.164062 79.125 173.03125 79.425781 173.03125 79.746094 C 173.03125 80.0625 173.164062 80.363281 173.398438 80.578125 L 174.734375 81.789062 L 173.402344 82.996094 C 173.167969 83.207031 173.03125 83.511719 173.03125 83.828125 Z M 173.03125 83.828125 " fill-opacity="1" fill-rule="nonzero"/></g><g clip-path="url(#77a6a69283)"><path fill="#e6e6e6" d="M 179.140625 83.828125 C 179.140625 84.144531 179.273438 84.449219 179.507812 84.664062 L 180.839844 85.871094 L 179.507812 87.078125 C 179.050781 87.496094 179.015625 88.207031 179.433594 88.667969 C 179.652344 88.914062 179.960938 89.039062 180.265625 89.039062 C 180.535156 89.039062 180.804688 88.945312 181.023438 88.75 L 183.273438 86.707031 C 183.507812 86.496094 183.644531 86.191406 183.644531 85.875 C 183.644531 85.554688 183.511719 85.253906 183.273438 85.039062 L 181.941406 83.832031 L 183.273438 82.625 C 183.511719 82.410156 183.644531 82.109375 183.644531 81.789062 C 183.644531 81.472656 183.511719 81.167969 183.277344 80.957031 L 181.941406 79.742188 L 183.277344 78.527344 C 183.511719 78.3125 183.644531 78.011719 183.644531 77.695312 C 183.644531 77.375 183.511719 77.074219 183.277344 76.859375 L 181.023438 74.8125 C 180.566406 74.394531 179.851562 74.429688 179.433594 74.886719 C 179.015625 75.347656 179.046875 76.058594 179.507812 76.480469 L 180.84375 77.695312 L 179.507812 78.910156 C 179.273438 79.125 179.140625 79.425781 179.140625 79.746094 C 179.140625 80.0625 179.273438 80.363281 179.507812 80.578125 L 180.84375 81.789062 L 179.511719 82.996094 C 179.273438 83.207031 179.140625 83.511719 179.140625 83.828125 Z M 179.140625 83.828125 " fill-opacity="1" fill-rule="nonzero"/></g><g clip-path="url(#6e131c809a)"><path fill="#0f0f0f" d="M 185.882812 327.621094 C 261.507812 327.621094 323.035156 266.09375 323.035156 190.46875 C 323.035156 114.84375 261.507812 53.320312 185.882812 53.320312 C 110.261719 53.320312 48.734375 114.84375 48.734375 190.46875 C 48.734375 266.09375 110.261719 327.621094 185.882812 327.621094 Z M 185.882812 56.894531 C 259.535156 56.894531 319.457031 116.816406 319.457031 190.46875 C 319.457031 264.121094 259.535156 324.042969 185.882812 324.042969 C 112.230469 324.042969 52.308594 264.121094 52.308594 190.46875 C 52.308594 116.816406 112.230469 56.894531 185.882812 56.894531 Z M 185.882812 56.894531 " fill-opacity="1" fill-rule="nonzero"/></g><g clip-path="url(#e2d25c1920)"><path fill="#0f0f0f" d="M 185.882812 316.914062 C 255.605469 316.914062 312.328125 260.1875 312.328125 190.46875 C 312.328125 120.746094 255.605469 64.023438 185.882812 64.023438 C 116.160156 64.023438 59.441406 120.746094 59.441406 190.46875 C 59.441406 260.1875 116.160156 316.914062 185.882812 316.914062 Z M 185.882812 316.914062 " fill-opacity="1" fill-rule="nonzero"/></g><path stroke-linecap="round" transform="matrix(0.75, -0.000000000000000279, 0.000000000000000279, 0.75, 51.955753, 221.343163)" fill="none" stroke-linejoin="miter" d="M 1.501704 1.500783 L 359.949645 1.500783 " stroke="#0f0f0f" stroke-width="3" stroke-opacity="1" stroke-miterlimit="4"/><path stroke-linecap="round" transform="matrix(0.75, -0.000000000000000558, 0.000000000000000558, 0.75, 131.734858, 257.101565)" fill="none" stroke-linejoin="miter" d="M 1.499356 1.499997 L 147.207699 1.499997 " stroke="#e6e6e6" stroke-width="3" stroke-opacity="1" stroke-miterlimit="4"/><g clip-path="url(#364c028ec7)"><g clip-path="url(#2ef950a5c1)"><g clip-path="url(#594e7af1d6)"><path fill="#e6e6e6" d="M 144.046875 132 L 143.449219 132.265625 C 138.3125 121.90625 125.828125 117.34375 115.179688 122.105469 L 106.546875 125.960938 L 105.550781 123.738281 C 108.257812 121.40625 109.375 118.578125 108.398438 116.394531 C 106.980469 113.222656 101.804688 112.554688 96.617188 114.875 C 91.429688 117.191406 88.472656 121.492188 89.890625 124.664062 C 90.867188 126.847656 93.71875 127.90625 97.261719 127.441406 L 98.257812 129.667969 L 89.625 133.523438 C 78.972656 138.285156 74.042969 150.628906 78.335938 161.367188 L 77.738281 161.632812 C 76.25 162.296875 75.582031 164.050781 76.246094 165.535156 C 76.910156 167.023438 78.664062 167.695312 80.152344 167.03125 L 146.457031 137.394531 C 147.945312 136.730469 148.617188 134.980469 147.953125 133.492188 C 147.285156 132 145.535156 131.332031 144.046875 132 Z M 97.632812 125.613281 C 94.644531 126.15625 92.175781 125.488281 91.488281 123.949219 C 90.503906 121.75 93.183594 118.324219 97.332031 116.472656 C 101.480469 114.617188 105.820312 114.90625 106.800781 117.105469 C 107.488281 118.644531 106.339844 120.929688 103.941406 122.792969 C 103.625 123.042969 103.515625 123.476562 103.679688 123.84375 L 104.949219 126.675781 L 99.855469 128.953125 L 98.585938 126.117188 C 98.421875 125.75 98.027344 125.542969 97.632812 125.613281 Z M 90.339844 135.121094 L 99.753906 130.914062 C 99.757812 130.910156 99.765625 130.914062 99.773438 130.910156 L 106.460938 127.917969 C 106.46875 127.917969 106.472656 127.910156 106.476562 127.910156 L 115.890625 123.703125 C 125.660156 119.335938 137.117188 123.496094 141.855469 132.976562 L 79.929688 160.652344 C 76.03125 150.796875 80.570312 139.488281 90.339844 135.121094 Z M 145.746094 135.800781 L 79.4375 165.433594 C 78.832031 165.703125 78.113281 165.429688 77.84375 164.824219 C 77.570312 164.214844 77.84375 163.5 78.453125 163.230469 L 144.761719 133.597656 C 145.367188 133.324219 146.082031 133.597656 146.355469 134.203125 C 146.625 134.8125 146.351562 135.527344 145.746094 135.800781 Z M 145.746094 135.800781 " fill-opacity="1" fill-rule="nonzero"/></g></g></g><g clip-path="url(#a37f56e59d)"><g clip-path="url(#da6b89005a)"><g clip-path="url(#fc66be2c28)"><path fill="#e6e6e6" d="M 91.050781 136.71875 C 87.210938 138.433594 84.066406 141.457031 82.195312 145.226562 C 81.980469 145.660156 82.15625 146.1875 82.589844 146.402344 C 82.832031 146.523438 83.105469 146.519531 83.335938 146.414062 C 83.511719 146.335938 83.667969 146.195312 83.761719 146.007812 C 85.453125 142.597656 88.292969 139.867188 91.765625 138.316406 C 92.207031 138.117188 92.402344 137.601562 92.207031 137.160156 C 92.007812 136.71875 91.492188 136.523438 91.050781 136.71875 Z M 91.050781 136.71875 " fill-opacity="1" fill-rule="nonzero"/></g></g></g><g clip-path="url(#8cd8e79eb6)"><g clip-path="url(#26e30ac9c0)"><g clip-path="url(#c036c32531)"><path fill="#e6e6e6" d="M 80.976562 148.375 C 80.667969 149.476562 80.457031 150.605469 80.355469 151.734375 C 80.3125 152.21875 80.667969 152.640625 81.152344 152.683594 C 81.304688 152.699219 81.453125 152.671875 81.585938 152.613281 C 81.863281 152.488281 82.070312 152.21875 82.097656 151.890625 C 82.191406 150.871094 82.378906 149.847656 82.660156 148.851562 C 82.792969 148.386719 82.523438 147.902344 82.058594 147.773438 C 81.589844 147.640625 81.109375 147.914062 80.976562 148.375 Z M 80.976562 148.375 " fill-opacity="1" fill-rule="nonzero"/></g></g></g><g clip-path="url(#93c11b9827)"><g clip-path="url(#e6c686b52f)"><g clip-path="url(#4ceb55e809)"><path fill="#e6e6e6" d="M 297.523438 161.390625 L 296.925781 161.128906 C 301.125 150.355469 296.082031 138.054688 285.394531 133.390625 L 276.726562 129.609375 L 277.699219 127.375 C 281.246094 127.804688 284.089844 126.722656 285.046875 124.53125 C 286.4375 121.347656 283.441406 117.074219 278.234375 114.800781 C 273.027344 112.527344 267.855469 113.242188 266.46875 116.425781 C 265.511719 118.617188 266.652344 121.4375 269.378906 123.742188 L 268.40625 125.976562 L 259.738281 122.195312 C 249.046875 117.527344 236.601562 122.199219 231.558594 132.605469 L 230.957031 132.34375 C 229.464844 131.691406 227.71875 132.375 227.066406 133.871094 C 226.414062 135.363281 227.101562 137.109375 228.59375 137.761719 L 295.160156 166.808594 C 296.652344 167.460938 298.402344 166.777344 299.050781 165.28125 C 299.703125 163.789062 299.019531 162.042969 297.523438 161.390625 Z M 270.980469 122.785156 C 268.566406 120.941406 267.398438 118.667969 268.070312 117.125 C 269.035156 114.914062 273.367188 114.585938 277.535156 116.40625 C 281.699219 118.222656 284.40625 121.625 283.445312 123.832031 C 282.769531 125.375 280.308594 126.066406 277.3125 125.550781 C 276.917969 125.480469 276.523438 125.695312 276.363281 126.0625 L 275.121094 128.90625 L 270.007812 126.675781 L 271.25 123.832031 C 271.410156 123.460938 271.300781 123.03125 270.980469 122.785156 Z M 259.039062 123.796875 L 268.492188 127.921875 C 268.496094 127.925781 268.5 127.929688 268.507812 127.933594 L 275.222656 130.863281 C 275.230469 130.867188 275.234375 130.867188 275.242188 130.867188 L 284.691406 134.992188 C 294.5 139.273438 299.140625 150.542969 295.324219 160.429688 L 233.160156 133.304688 C 237.816406 123.78125 249.230469 119.519531 259.039062 123.796875 Z M 295.859375 165.207031 L 229.292969 136.160156 C 228.683594 135.894531 228.402344 135.179688 228.671875 134.570312 C 228.9375 133.960938 229.648438 133.679688 230.257812 133.949219 L 296.824219 162.996094 C 297.433594 163.261719 297.714844 163.972656 297.449219 164.582031 C 297.183594 165.191406 296.46875 165.472656 295.859375 165.207031 Z M 295.859375 165.207031 " fill-opacity="1" fill-rule="nonzero"/></g></g></g><g clip-path="url(#aae22218b3)"><g clip-path="url(#43a0e6dbdf)"><g clip-path="url(#4f9991ec91)"><path fill="#e6e6e6" d="M 258.339844 125.402344 C 254.484375 123.71875 250.132812 123.429688 246.082031 124.585938 C 245.617188 124.71875 245.351562 125.203125 245.484375 125.667969 C 245.558594 125.929688 245.742188 126.128906 245.972656 126.230469 C 246.152344 126.308594 246.359375 126.328125 246.5625 126.269531 C 250.222656 125.222656 254.15625 125.484375 257.640625 127.003906 C 258.082031 127.199219 258.597656 126.996094 258.789062 126.550781 C 258.984375 126.109375 258.78125 125.59375 258.339844 125.402344 Z M 258.339844 125.402344 " fill-opacity="1" fill-rule="nonzero"/></g></g></g><g clip-path="url(#44a8944fda)"><g clip-path="url(#5b8ef15f5d)"><g clip-path="url(#b763f29940)"><path fill="#e6e6e6" d="M 242.9375 125.808594 C 241.917969 126.316406 240.941406 126.925781 240.035156 127.613281 C 239.652344 127.90625 239.578125 128.453125 239.871094 128.835938 C 239.964844 128.960938 240.082031 129.050781 240.214844 129.109375 C 240.496094 129.230469 240.835938 129.203125 241.09375 129.003906 C 241.910156 128.382812 242.792969 127.835938 243.71875 127.375 C 244.152344 127.15625 244.328125 126.632812 244.109375 126.199219 C 243.894531 125.765625 243.371094 125.59375 242.9375 125.808594 Z M 242.9375 125.808594 " fill-opacity="1" fill-rule="nonzero"/></g></g></g><path stroke-linecap="round" transform="matrix(0.75, 0, 0, 0.75, 51.955753, 151.90414)" fill="none" stroke-linejoin="miter" d="M 1.501704 1.497605 L 359.949645 1.497605 " stroke="#0f0f0f" stroke-width="3" stroke-opacity="1" stroke-miterlimit="4"/><g fill="#0f0f0f" fill-opacity="1"><g transform="translate(84.052955, 182.498645)"><g><path d="M 13.59375 0 L 1.78125 0 L 1.78125 -17.828125 L 1.375 -19.4375 L 13.59375 -19.4375 L 13.59375 -16.8125 L 5.421875 -16.8125 L 5.421875 -11.3125 L 11.6875 -11.3125 L 11.6875 -8.6875 L 5.421875 -8.6875 L 5.421875 -2.625 L 13.59375 -2.625 Z M 13.59375 0 "/></g></g></g><g fill="#0f0f0f" fill-opacity="1"><g transform="translate(98.631514, 182.498645)"><g><path d="M 13.0625 0 L 1.75 0 L 1.75 -17.828125 C 1.75 -17.835938 1.722656 -17.96875 1.671875 -18.21875 C 1.617188 -18.46875 1.5625 -18.722656 1.5 -18.984375 C 1.4375 -19.253906 1.40625 -19.40625 1.40625 -19.4375 L 5.4375 -19.4375 L 5.4375 -2.625 L 13.0625 -2.625 Z M 13.0625 0 "/></g></g></g><g fill="#0f0f0f" fill-opacity="1"><g transform="translate(112.280664, 182.498645)"><g/></g></g><g fill="#0f0f0f" fill-opacity="1"><g transform="translate(118.388261, 182.498645)"><g><path d="M 16.703125 0 L 12.78125 0 L 10.859375 -5.578125 L 5.125 -5.578125 L 3.140625 0 L 0.046875 0 L 6.9375 -19.4375 L 9.828125 -19.4375 Z M 9.984375 -8.1875 C 9.140625 -10.78125 8.46875 -12.992188 7.96875 -14.828125 C 7.363281 -12.609375 6.71875 -10.394531 6.03125 -8.1875 Z M 9.984375 -8.1875 "/></g></g></g><g fill="#0f0f0f" fill-opacity="1"><g transform="translate(135.14431, 182.498645)"><g><path d="M 17.265625 0.125 L 14.390625 0.125 L 5.65625 -13.203125 C 5.050781 -14.140625 4.679688 -14.734375 4.546875 -14.984375 C 4.648438 -13.816406 4.703125 -13.222656 4.703125 -13.203125 L 4.703125 0 L 1.75 0 L 1.75 -17.796875 C 1.75 -17.816406 1.71875 -17.945312 1.65625 -18.1875 C 1.59375 -18.4375 1.53125 -18.691406 1.46875 -18.953125 C 1.40625 -19.222656 1.375 -19.378906 1.375 -19.421875 L 5.734375 -19.421875 L 13.390625 -7.78125 C 13.648438 -7.394531 14.007812 -6.8125 14.46875 -6.03125 C 14.363281 -7.351562 14.3125 -8.035156 14.3125 -8.078125 L 14.3125 -19.421875 L 17.265625 -19.421875 Z M 17.265625 0.125 "/></g></g></g><g fill="#0f0f0f" fill-opacity="1"><g transform="translate(154.104411, 182.498645)"><g><path d="M 5.421875 0 L 1.75 0 L 1.75 -17.828125 C 1.75 -17.835938 1.71875 -17.96875 1.65625 -18.21875 C 1.59375 -18.46875 1.53125 -18.722656 1.46875 -18.984375 C 1.40625 -19.253906 1.375 -19.40625 1.375 -19.4375 L 5.421875 -19.4375 Z M 5.421875 0 "/></g></g></g><g fill="#0f0f0f" fill-opacity="1"><g transform="translate(161.22109, 182.498645)"><g><path d="M 31.453125 4.328125 C 29.691406 4.929688 28.445312 5.316406 27.71875 5.484375 C 27 5.648438 26.035156 5.734375 24.828125 5.734375 C 24.066406 5.734375 23.234375 5.632812 22.328125 5.4375 C 21.429688 5.25 20.4375 4.953125 19.34375 4.546875 C 18.257812 4.140625 17.363281 3.785156 16.65625 3.484375 C 15.945312 3.179688 14.972656 2.742188 13.734375 2.171875 C 12.492188 1.609375 11.710938 1.253906 11.390625 1.109375 C 10.859375 0.878906 9.726562 0.582031 8 0.21875 C 5.425781 -0.332031 3.53125 -1.492188 2.3125 -3.265625 C 1.101562 -5.035156 0.5 -7.171875 0.5 -9.671875 C 0.5 -10.992188 0.691406 -12.253906 1.078125 -13.453125 C 1.472656 -14.648438 2.039062 -15.722656 2.78125 -16.671875 C 3.53125 -17.617188 4.503906 -18.367188 5.703125 -18.921875 C 6.910156 -19.484375 8.273438 -19.765625 9.796875 -19.765625 C 11.316406 -19.765625 12.679688 -19.484375 13.890625 -18.921875 C 15.097656 -18.367188 16.070312 -17.617188 16.8125 -16.671875 C 17.550781 -15.722656 18.113281 -14.648438 18.5 -13.453125 C 18.882812 -12.253906 19.078125 -10.992188 19.078125 -9.671875 C 19.078125 -7.804688 18.6875 -6.070312 17.90625 -4.46875 C 17.125 -2.875 15.898438 -1.625 14.234375 -0.71875 L 14.5625 -0.5625 C 15.988281 0.132812 17.171875 0.691406 18.109375 1.109375 C 19.046875 1.535156 20.3125 1.992188 21.90625 2.484375 C 23.5 2.984375 24.835938 3.234375 25.921875 3.234375 C 27.128906 3.234375 28.769531 2.925781 30.84375 2.3125 Z M 15.171875 -9.671875 C 15.171875 -10.984375 15 -12.179688 14.65625 -13.265625 C 14.320312 -14.359375 13.738281 -15.289062 12.90625 -16.0625 C 12.070312 -16.832031 11.035156 -17.21875 9.796875 -17.21875 C 8.578125 -17.21875 7.546875 -16.832031 6.703125 -16.0625 C 5.859375 -15.289062 5.269531 -14.351562 4.9375 -13.25 C 4.601562 -12.15625 4.4375 -10.953125 4.4375 -9.640625 C 4.4375 -8.347656 4.601562 -7.164062 4.9375 -6.09375 C 5.269531 -5.019531 5.859375 -4.109375 6.703125 -3.359375 C 7.546875 -2.617188 8.578125 -2.25 9.796875 -2.25 C 11.609375 -2.25 12.957031 -2.972656 13.84375 -4.421875 C 14.726562 -5.867188 15.171875 -7.617188 15.171875 -9.671875 Z M 15.171875 -9.671875 "/></g></g></g><g fill="#0f0f0f" fill-opacity="1"><g transform="translate(180.791951, 182.498645)"><g><path d="M 17.109375 -7.390625 C 17.109375 -4.742188 16.410156 -2.800781 15.015625 -1.5625 C 13.628906 -0.320312 11.773438 0.296875 9.453125 0.296875 C 6.992188 0.296875 5.101562 -0.363281 3.78125 -1.6875 C 2.46875 -3.007812 1.8125 -4.910156 1.8125 -7.390625 L 1.8125 -17.84375 L 1.375 -19.4375 L 5.546875 -19.4375 L 5.546875 -6.5 C 5.546875 -5.207031 5.9375 -4.171875 6.71875 -3.390625 C 7.5 -2.617188 8.535156 -2.234375 9.828125 -2.234375 C 11.140625 -2.234375 12.179688 -2.613281 12.953125 -3.375 C 13.722656 -4.132812 14.109375 -5.175781 14.109375 -6.5 L 14.109375 -19.4375 L 17.109375 -19.4375 Z M 17.109375 -7.390625 "/></g></g></g><g fill="#0f0f0f" fill-opacity="1"><g transform="translate(199.566165, 182.498645)"><g><path d="M 5.421875 0 L 1.75 0 L 1.75 -17.828125 C 1.75 -17.835938 1.71875 -17.96875 1.65625 -18.21875 C 1.59375 -18.46875 1.53125 -18.722656 1.46875 -18.984375 C 1.40625 -19.253906 1.375 -19.40625 1.375 -19.4375 L 5.421875 -19.4375 Z M 5.421875 0 "/></g></g></g><g fill="#0f0f0f" fill-opacity="1"><g transform="translate(206.682845, 182.498645)"><g><path d="M 13.0625 0 L 1.75 0 L 1.75 -17.828125 C 1.75 -17.835938 1.722656 -17.96875 1.671875 -18.21875 C 1.617188 -18.46875 1.5625 -18.722656 1.5 -18.984375 C 1.4375 -19.253906 1.40625 -19.40625 1.40625 -19.4375 L 5.4375 -19.4375 L 5.4375 -2.625 L 13.0625 -2.625 Z M 13.0625 0 "/></g></g></g><g fill="#0f0f0f" fill-opacity="1"><g transform="translate(220.331995, 182.498645)"><g><path d="M 16.703125 0 L 12.78125 0 L 10.859375 -5.578125 L 5.125 -5.578125 L 3.140625 0 L 0.046875 0 L 6.9375 -19.4375 L 9.828125 -19.4375 Z M 9.984375 -8.1875 C 9.140625 -10.78125 8.46875 -12.992188 7.96875 -14.828125 C 7.363281 -12.609375 6.71875 -10.394531 6.03125 -8.1875 Z M 9.984375 -8.1875 "/></g></g></g><g fill="#0f0f0f" fill-opacity="1"><g transform="translate(237.088044, 182.498645)"><g><path d="M 18.0625 -9.6875 C 18.0625 -6.71875 17.148438 -4.328125 15.328125 -2.515625 C 13.640625 -0.835938 11.425781 0 8.6875 0 L 1.78125 0 L 1.78125 -17.828125 C 1.78125 -17.835938 1.710938 -18.09375 1.578125 -18.59375 C 1.441406 -19.101562 1.367188 -19.382812 1.359375 -19.4375 L 8.71875 -19.4375 C 11.632812 -19.4375 13.921875 -18.546875 15.578125 -16.765625 C 17.234375 -14.992188 18.0625 -12.632812 18.0625 -9.6875 Z M 14.125 -9.59375 C 14.125 -10.863281 13.945312 -12.019531 13.59375 -13.0625 C 13.238281 -14.113281 12.625 -15 11.75 -15.71875 C 10.875 -16.445312 9.78125 -16.8125 8.46875 -16.8125 L 5.4375 -16.8125 L 5.4375 -2.625 L 8.53125 -2.625 C 9.5 -2.625 10.351562 -2.8125 11.09375 -3.1875 C 11.84375 -3.570312 12.429688 -4.097656 12.859375 -4.765625 C 13.285156 -5.429688 13.601562 -6.164062 13.8125 -6.96875 C 14.019531 -7.78125 14.125 -8.65625 14.125 -9.59375 Z M 14.125 -9.59375 "/></g></g></g><g fill="#0f0f0f" fill-opacity="1"><g transform="translate(255.649822, 182.498645)"><g><path d="M 19.078125 -9.6875 C 19.078125 -6.769531 18.234375 -4.375 16.546875 -2.5 C 14.867188 -0.632812 12.582031 0.296875 9.6875 0.296875 C 6.800781 0.296875 4.546875 -0.644531 2.921875 -2.53125 C 1.304688 -4.414062 0.5 -6.820312 0.5 -9.75 C 0.5 -12.6875 1.3125 -15.082031 2.9375 -16.9375 C 4.570312 -18.800781 6.832031 -19.734375 9.71875 -19.734375 C 12.675781 -19.734375 14.972656 -18.804688 16.609375 -16.953125 C 18.253906 -15.109375 19.078125 -12.6875 19.078125 -9.6875 Z M 15.140625 -9.59375 C 15.140625 -10.53125 15.050781 -11.414062 14.875 -12.25 C 14.695312 -13.09375 14.410156 -13.898438 14.015625 -14.671875 C 13.628906 -15.441406 13.066406 -16.054688 12.328125 -16.515625 C 11.597656 -16.984375 10.738281 -17.21875 9.75 -17.21875 C 8.769531 -17.21875 7.914062 -17 7.1875 -16.5625 C 6.46875 -16.125 5.910156 -15.535156 5.515625 -14.796875 C 5.128906 -14.066406 4.847656 -13.289062 4.671875 -12.46875 C 4.492188 -11.644531 4.40625 -10.773438 4.40625 -9.859375 C 4.40625 -8.921875 4.492188 -8.03125 4.671875 -7.1875 C 4.847656 -6.34375 5.128906 -5.535156 5.515625 -4.765625 C 5.910156 -3.992188 6.472656 -3.378906 7.203125 -2.921875 C 7.941406 -2.460938 8.804688 -2.234375 9.796875 -2.234375 C 10.773438 -2.234375 11.625 -2.445312 12.34375 -2.875 C 13.070312 -3.3125 13.628906 -3.894531 14.015625 -4.625 C 14.410156 -5.363281 14.695312 -6.144531 14.875 -6.96875 C 15.050781 -7.789062 15.140625 -8.664062 15.140625 -9.59375 Z M 15.140625 -9.59375 "/></g></g></g><g fill="#0f0f0f" fill-opacity="1"><g transform="translate(275.220682, 182.498645)"><g><path d="M 16.390625 0 L 12.25 0 L 6.859375 -8.65625 L 5.390625 -8.65625 L 5.390625 0 L 1.75 0 L 1.75 -17.828125 C 1.75 -17.859375 1.6875 -18.117188 1.5625 -18.609375 C 1.4375 -19.097656 1.367188 -19.375 1.359375 -19.4375 L 8.015625 -19.4375 C 9.984375 -19.4375 11.566406 -19.019531 12.765625 -18.1875 C 13.972656 -17.363281 14.578125 -16.007812 14.578125 -14.125 C 14.578125 -13.03125 14.160156 -12.003906 13.328125 -11.046875 C 12.492188 -10.085938 11.53125 -9.476562 10.4375 -9.21875 Z M 10.734375 -14.15625 C 10.734375 -14.988281 10.441406 -15.632812 9.859375 -16.09375 C 9.273438 -16.550781 8.546875 -16.78125 7.671875 -16.78125 L 5.390625 -16.78125 L 5.390625 -11.265625 L 7.09375 -11.265625 C 9.519531 -11.265625 10.734375 -12.226562 10.734375 -14.15625 Z M 10.734375 -14.15625 "/></g></g></g><g fill="#0f0f0f" fill-opacity="1"><g transform="translate(108.767797, 210.998643)"><g><path d="M 18.0625 -9.6875 C 18.0625 -6.71875 17.148438 -4.328125 15.328125 -2.515625 C 13.640625 -0.835938 11.425781 0 8.6875 0 L 1.78125 0 L 1.78125 -17.828125 C 1.78125 -17.835938 1.710938 -18.09375 1.578125 -18.59375 C 1.441406 -19.101562 1.367188 -19.382812 1.359375 -19.4375 L 8.71875 -19.4375 C 11.632812 -19.4375 13.921875 -18.546875 15.578125 -16.765625 C 17.234375 -14.992188 18.0625 -12.632812 18.0625 -9.6875 Z M 14.125 -9.59375 C 14.125 -10.863281 13.945312 -12.019531 13.59375 -13.0625 C 13.238281 -14.113281 12.625 -15 11.75 -15.71875 C 10.875 -16.445312 9.78125 -16.8125 8.46875 -16.8125 L 5.4375 -16.8125 L 5.4375 -2.625 L 8.53125 -2.625 C 9.5 -2.625 10.351562 -2.8125 11.09375 -3.1875 C 11.84375 -3.570312 12.429688 -4.097656 12.859375 -4.765625 C 13.285156 -5.429688 13.601562 -6.164062 13.8125 -6.96875 C 14.019531 -7.78125 14.125 -8.65625 14.125 -9.59375 Z M 14.125 -9.59375 "/></g></g></g><g fill="#0f0f0f" fill-opacity="1"><g transform="translate(127.329575, 210.998643)"><g><path d="M 13.59375 0 L 1.78125 0 L 1.78125 -17.828125 L 1.375 -19.4375 L 13.59375 -19.4375 L 13.59375 -16.8125 L 5.421875 -16.8125 L 5.421875 -11.3125 L 11.6875 -11.3125 L 11.6875 -8.6875 L 5.421875 -8.6875 L 5.421875 -2.625 L 13.59375 -2.625 Z M 13.59375 0 "/></g></g></g><g fill="#0f0f0f" fill-opacity="1"><g transform="translate(141.908134, 210.998643)"><g><path d="M 13.0625 0 L 1.75 0 L 1.75 -17.828125 C 1.75 -17.835938 1.722656 -17.96875 1.671875 -18.21875 C 1.617188 -18.46875 1.5625 -18.722656 1.5 -18.984375 C 1.4375 -19.253906 1.40625 -19.40625 1.40625 -19.4375 L 5.4375 -19.4375 L 5.4375 -2.625 L 13.0625 -2.625 Z M 13.0625 0 "/></g></g></g><g fill="#0f0f0f" fill-opacity="1"><g transform="translate(161.664881, 210.998643)"><g><path d="M 17.265625 0 L 13.59375 0 L 13.59375 -8.6875 L 5.4375 -8.6875 L 5.4375 0 L 1.78125 0 L 1.78125 -17.828125 C 1.78125 -17.835938 1.75 -17.96875 1.6875 -18.21875 C 1.625 -18.46875 1.5625 -18.722656 1.5 -18.984375 C 1.4375 -19.253906 1.40625 -19.40625 1.40625 -19.4375 L 5.4375 -19.4375 L 5.4375 -11.3125 L 13.59375 -11.3125 L 13.59375 -19.4375 L 17.265625 -19.4375 Z M 17.265625 0 "/></g></g></g><g fill="#0f0f0f" fill-opacity="1"><g transform="translate(180.624982, 210.998643)"><g><path d="M 16.703125 0 L 12.78125 0 L 10.859375 -5.578125 L 5.125 -5.578125 L 3.140625 0 L 0.046875 0 L 6.9375 -19.4375 L 9.828125 -19.4375 Z M 9.984375 -8.1875 C 9.140625 -10.78125 8.46875 -12.992188 7.96875 -14.828125 C 7.363281 -12.609375 6.71875 -10.394531 6.03125 -8.1875 Z M 9.984375 -8.1875 "/></g></g></g><g fill="#0f0f0f" fill-opacity="1"><g transform="translate(197.381031, 210.998643)"><g><path d="M 20.875 -0.03125 L 17.296875 -0.03125 L 17.296875 -13.203125 C 17.296875 -13.453125 17.335938 -14.085938 17.421875 -15.109375 C 17.367188 -14.972656 17.300781 -14.773438 17.21875 -14.515625 C 17.144531 -14.253906 17.070312 -14.019531 17 -13.8125 C 16.925781 -13.601562 16.851562 -13.398438 16.78125 -13.203125 L 12.03125 0 L 10.0625 0 L 5.171875 -13.203125 C 5.109375 -13.398438 5.039062 -13.601562 4.96875 -13.8125 C 4.894531 -14.019531 4.816406 -14.253906 4.734375 -14.515625 C 4.660156 -14.773438 4.597656 -14.972656 4.546875 -15.109375 C 4.546875 -14.953125 4.566406 -14.648438 4.609375 -14.203125 C 4.648438 -13.765625 4.671875 -13.429688 4.671875 -13.203125 L 4.671875 -0.03125 L 1.78125 -0.03125 L 1.78125 -17.828125 C 1.78125 -17.835938 1.75 -17.96875 1.6875 -18.21875 C 1.625 -18.46875 1.5625 -18.722656 1.5 -18.984375 C 1.4375 -19.253906 1.40625 -19.40625 1.40625 -19.4375 L 6.5 -19.4375 L 10.65625 -8.28125 C 10.84375 -7.75 11.097656 -6.679688 11.421875 -5.078125 C 11.453125 -5.203125 11.539062 -5.644531 11.6875 -6.40625 C 11.84375 -7.175781 11.992188 -7.769531 12.140625 -8.1875 L 16.203125 -19.4375 L 20.875 -19.4375 Z M 20.875 -0.03125 "/></g></g></g><g fill="#0f0f0f" fill-opacity="1"><g transform="translate(219.633917, 210.998643)"><g><path d="M 15.5625 -5.390625 C 15.5625 -4.128906 15.207031 -3.078125 14.5 -2.234375 C 13.789062 -1.398438 12.929688 -0.816406 11.921875 -0.484375 C 10.910156 -0.160156 9.796875 0 8.578125 0 L 1.78125 0 L 1.78125 -17.828125 C 1.78125 -17.835938 1.75 -17.96875 1.6875 -18.21875 C 1.625 -18.46875 1.5625 -18.722656 1.5 -18.984375 C 1.4375 -19.253906 1.40625 -19.40625 1.40625 -19.4375 L 8.3125 -19.4375 C 9.144531 -19.4375 9.910156 -19.367188 10.609375 -19.234375 C 11.304688 -19.109375 11.972656 -18.882812 12.609375 -18.5625 C 13.253906 -18.25 13.753906 -17.773438 14.109375 -17.140625 C 14.472656 -16.515625 14.65625 -15.769531 14.65625 -14.90625 C 14.65625 -13.789062 14.273438 -12.832031 13.515625 -12.03125 C 12.753906 -11.238281 11.816406 -10.757812 10.703125 -10.59375 C 12.066406 -10.363281 13.21875 -9.773438 14.15625 -8.828125 C 15.09375 -7.878906 15.5625 -6.734375 15.5625 -5.390625 Z M 10.8125 -14.390625 C 10.8125 -15.210938 10.566406 -15.820312 10.078125 -16.21875 C 9.585938 -16.613281 8.925781 -16.8125 8.09375 -16.8125 L 5.4375 -16.8125 L 5.4375 -11.84375 L 8.1875 -11.84375 C 8.945312 -11.84375 9.570312 -12.078125 10.0625 -12.546875 C 10.5625 -13.015625 10.8125 -13.628906 10.8125 -14.390625 Z M 11.71875 -5.8125 C 11.71875 -6.925781 11.304688 -7.769531 10.484375 -8.34375 C 9.671875 -8.925781 8.679688 -9.21875 7.515625 -9.21875 L 5.4375 -9.21875 L 5.4375 -2.625 L 8.34375 -2.625 C 9.351562 -2.625 10.164062 -2.90625 10.78125 -3.46875 C 11.40625 -4.039062 11.71875 -4.820312 11.71875 -5.8125 Z M 11.71875 -5.8125 "/></g></g></g><g fill="#0f0f0f" fill-opacity="1"><g transform="translate(235.938542, 210.998643)"><g><path d="M 16.390625 0 L 12.25 0 L 6.859375 -8.65625 L 5.390625 -8.65625 L 5.390625 0 L 1.75 0 L 1.75 -17.828125 C 1.75 -17.859375 1.6875 -18.117188 1.5625 -18.609375 C 1.4375 -19.097656 1.367188 -19.375 1.359375 -19.4375 L 8.015625 -19.4375 C 9.984375 -19.4375 11.566406 -19.019531 12.765625 -18.1875 C 13.972656 -17.363281 14.578125 -16.007812 14.578125 -14.125 C 14.578125 -13.03125 14.160156 -12.003906 13.328125 -11.046875 C 12.492188 -10.085938 11.53125 -9.476562 10.4375 -9.21875 Z M 10.734375 -14.15625 C 10.734375 -14.988281 10.441406 -15.632812 9.859375 -16.09375 C 9.273438 -16.550781 8.546875 -16.78125 7.671875 -16.78125 L 5.390625 -16.78125 L 5.390625 -11.265625 L 7.09375 -11.265625 C 9.519531 -11.265625 10.734375 -12.226562 10.734375 -14.15625 Z M 10.734375 -14.15625 "/></g></g></g><g fill="#0f0f0f" fill-opacity="1"><g transform="translate(251.632408, 210.998643)"><g><path d="M 13.59375 0 L 1.78125 0 L 1.78125 -17.828125 L 1.375 -19.4375 L 13.59375 -19.4375 L 13.59375 -16.8125 L 5.421875 -16.8125 L 5.421875 -11.3125 L 11.6875 -11.3125 L 11.6875 -8.6875 L 5.421875 -8.6875 L 5.421875 -2.625 L 13.59375 -2.625 Z M 13.59375 0 "/></g></g></g><g fill="#e6e6e6" fill-opacity="1"><g transform="translate(146.950115, 277.53763)"><g><path d="M 5.1875 0 L 0.296875 -12.25 L 1.9375 -12.25 L 3.96875 -7.09375 L 5.890625 -2.21875 L 7.8125 -7.09375 L 9.859375 -12.25 L 11.484375 -12.25 L 6.609375 0 Z M 5.1875 0 "/></g></g></g><g fill="#e6e6e6" fill-opacity="1"><g transform="translate(158.719176, 277.53763)"><g><path d="M 0.296875 0 L 5.34375 -12.25 L 6.765625 -12.25 L 11.8125 0 L 10.1875 0 L 9.03125 -2.78125 L 3.0625 -2.78125 L 1.9375 0 Z M 3.65625 -4.21875 L 8.453125 -4.21875 L 6.0625 -10.09375 Z M 3.65625 -4.21875 "/></g></g></g><g fill="#e6e6e6" fill-opacity="1"><g transform="translate(170.820505, 277.53763)"><g><path d="M 1.78125 0 L 1.78125 -12.25 L 3.328125 -12.25 L 3.328125 -1.46875 L 9.28125 -1.46875 L 9.28125 0 Z M 1.78125 0 "/></g></g></g><g fill="#e6e6e6" fill-opacity="1"><g transform="translate(180.630967, 277.53763)"><g><path d="M 1.78125 0 L 1.78125 -12.25 L 6.015625 -12.25 C 7.273438 -12.25 8.375 -11.988281 9.3125 -11.46875 C 10.257812 -10.945312 10.992188 -10.226562 11.515625 -9.3125 C 12.035156 -8.394531 12.296875 -7.332031 12.296875 -6.125 C 12.296875 -4.925781 12.035156 -3.863281 11.515625 -2.9375 C 10.992188 -2.019531 10.257812 -1.300781 9.3125 -0.78125 C 8.375 -0.257812 7.273438 0 6.015625 0 Z M 3.328125 -1.46875 L 6.015625 -1.46875 C 6.953125 -1.46875 7.769531 -1.660156 8.46875 -2.046875 C 9.175781 -2.441406 9.726562 -2.988281 10.125 -3.6875 C 10.53125 -4.394531 10.734375 -5.207031 10.734375 -6.125 C 10.734375 -7.0625 10.53125 -7.875 10.125 -8.5625 C 9.71875 -9.257812 9.160156 -9.800781 8.453125 -10.1875 C 7.742188 -10.582031 6.910156 -10.78125 5.953125 -10.78125 L 3.328125 -10.78125 Z M 3.328125 -1.46875 "/></g></g></g><g fill="#e6e6e6" fill-opacity="1"><g transform="translate(193.938925, 277.53763)"><g><path d="M 1.78125 0 L 1.78125 -12.25 L 3.328125 -12.25 L 3.328125 0 Z M 1.78125 0 "/></g></g></g><g fill="#e6e6e6" fill-opacity="1"><g transform="translate(199.045261, 277.53763)"><g><path d="M 5.1875 0 L 0.296875 -12.25 L 1.9375 -12.25 L 3.96875 -7.09375 L 5.890625 -2.21875 L 7.8125 -7.09375 L 9.859375 -12.25 L 11.484375 -12.25 L 6.609375 0 Z M 5.1875 0 "/></g></g></g><g fill="#e6e6e6" fill-opacity="1"><g transform="translate(210.814321, 277.53763)"><g><path d="M 1.78125 0 L 1.78125 -12.25 L 3.328125 -12.25 L 3.328125 0 Z M 1.78125 0 "/></g></g></g><g fill="#e6e6e6" fill-opacity="1"><g transform="translate(215.920657, 277.53763)"><g><path d="M 0.296875 0 L 5.34375 -12.25 L 6.765625 -12.25 L 11.8125 0 L 10.1875 0 L 9.03125 -2.78125 L 3.0625 -2.78125 L 1.9375 0 Z M 3.65625 -4.21875 L 8.453125 -4.21875 L 6.0625 -10.09375 Z M 3.65625 -4.21875 "/></g></g></g><g fill="#e6e6e6" fill-opacity="1"><g transform="translate(82.885477, 248.164955)"><g><path d="M 5.265625 0 L 5.265625 -11.53125 L 0.625 -11.53125 L 0.625 -14.640625 L 13.25 -14.640625 L 13.25 -11.53125 L 8.59375 -11.53125 L 8.59375 0 Z M 5.265625 0 "/></g></g></g><g fill="#e6e6e6" fill-opacity="1"><g transform="translate(96.752238, 248.164955)"><g><path d="M 1.75 0 L 1.75 -14.640625 L 11.375 -14.640625 L 11.375 -11.84375 L 5.0625 -11.84375 L 5.0625 -8.8125 L 10.8125 -8.8125 L 10.8125 -6.03125 L 5.0625 -6.03125 L 5.0625 -2.828125 L 11.609375 -2.828125 L 11.609375 0 Z M 1.75 0 "/></g></g></g><g fill="#e6e6e6" fill-opacity="1"><g transform="translate(109.426835, 248.164955)"><g><path d="M 1.75 0 L 1.75 -14.640625 L 4.578125 -14.640625 L 11.046875 -5.734375 L 11.046875 -14.640625 L 14.359375 -14.640625 L 14.359375 0 L 11.53125 0 L 5.0625 -8.96875 L 5.0625 0 Z M 1.75 0 "/></g></g></g><g fill="#e6e6e6" fill-opacity="1"><g transform="translate(125.531518, 248.164955)"><g><path d="M 1.75 0 L 1.75 -14.640625 L 11.375 -14.640625 L 11.375 -11.84375 L 5.0625 -11.84375 L 5.0625 -8.8125 L 10.8125 -8.8125 L 10.8125 -6.03125 L 5.0625 -6.03125 L 5.0625 -2.828125 L 11.609375 -2.828125 L 11.609375 0 Z M 1.75 0 "/></g></g></g><g fill="#e6e6e6" fill-opacity="1"><g transform="translate(138.206115, 248.164955)"><g><path d="M 1.75 0 L 1.75 -14.640625 L 4.578125 -14.640625 L 9.796875 -7.046875 L 14.984375 -14.640625 L 17.78125 -14.640625 L 17.78125 0 L 14.484375 0 L 14.484375 -8.8125 L 10.921875 -3.625 L 8.625 -3.625 L 5.0625 -8.828125 L 5.0625 0 Z M 1.75 0 "/></g></g></g><g fill="#e6e6e6" fill-opacity="1"><g transform="translate(157.740897, 248.164955)"><g><path d="M 8.703125 0.296875 C 7.179688 0.296875 5.832031 -0.0234375 4.65625 -0.671875 C 3.476562 -1.328125 2.554688 -2.222656 1.890625 -3.359375 C 1.234375 -4.503906 0.90625 -5.828125 0.90625 -7.328125 C 0.90625 -8.816406 1.234375 -10.132812 1.890625 -11.28125 C 2.554688 -12.425781 3.476562 -13.320312 4.65625 -13.96875 C 5.832031 -14.613281 7.179688 -14.9375 8.703125 -14.9375 C 10.234375 -14.9375 11.582031 -14.613281 12.75 -13.96875 C 13.925781 -13.320312 14.847656 -12.425781 15.515625 -11.28125 C 16.191406 -10.132812 16.53125 -8.816406 16.53125 -7.328125 C 16.53125 -5.828125 16.191406 -4.503906 15.515625 -3.359375 C 14.847656 -2.222656 13.925781 -1.328125 12.75 -0.671875 C 11.582031 -0.0234375 10.234375 0.296875 8.703125 0.296875 Z M 4.28125 -7.328125 C 4.28125 -6.441406 4.46875 -5.664062 4.84375 -5 C 5.226562 -4.332031 5.75 -3.804688 6.40625 -3.421875 C 7.070312 -3.046875 7.835938 -2.859375 8.703125 -2.859375 C 9.578125 -2.859375 10.347656 -3.046875 11.015625 -3.421875 C 11.679688 -3.804688 12.195312 -4.332031 12.5625 -5 C 12.9375 -5.664062 13.125 -6.441406 13.125 -7.328125 C 13.125 -8.203125 12.9375 -8.972656 12.5625 -9.640625 C 12.195312 -10.316406 11.679688 -10.84375 11.015625 -11.21875 C 10.347656 -11.59375 9.578125 -11.78125 8.703125 -11.78125 C 7.835938 -11.78125 7.070312 -11.59375 6.40625 -11.21875 C 5.75 -10.84375 5.226562 -10.316406 4.84375 -9.640625 C 4.46875 -8.972656 4.28125 -8.203125 4.28125 -7.328125 Z M 4.28125 -7.328125 "/></g></g></g><g fill="#e6e6e6" fill-opacity="1"><g transform="translate(175.163245, 248.164955)"><g><path d="M 6.859375 0.296875 C 5.628906 0.296875 4.570312 0.09375 3.6875 -0.3125 C 2.800781 -0.71875 2.117188 -1.289062 1.640625 -2.03125 C 1.160156 -2.78125 0.921875 -3.660156 0.921875 -4.671875 L 4.1875 -4.671875 C 4.1875 -3.972656 4.425781 -3.425781 4.90625 -3.03125 C 5.382812 -2.644531 6.03125 -2.453125 6.84375 -2.453125 C 7.539062 -2.453125 8.085938 -2.585938 8.484375 -2.859375 C 8.890625 -3.128906 9.09375 -3.507812 9.09375 -4 C 9.09375 -4.507812 8.847656 -4.925781 8.359375 -5.25 C 7.878906 -5.570312 7.125 -5.84375 6.09375 -6.0625 C 4.375 -6.425781 3.101562 -6.976562 2.28125 -7.71875 C 1.457031 -8.457031 1.046875 -9.421875 1.046875 -10.609375 C 1.046875 -11.941406 1.53125 -12.992188 2.5 -13.765625 C 3.476562 -14.546875 4.8125 -14.9375 6.5 -14.9375 C 7.664062 -14.9375 8.671875 -14.738281 9.515625 -14.34375 C 10.367188 -13.945312 11.03125 -13.390625 11.5 -12.671875 C 11.96875 -11.953125 12.203125 -11.097656 12.203125 -10.109375 L 9 -10.109375 C 9 -10.765625 8.78125 -11.28125 8.34375 -11.65625 C 7.914062 -12.03125 7.316406 -12.21875 6.546875 -12.21875 C 5.847656 -12.21875 5.296875 -12.082031 4.890625 -11.8125 C 4.484375 -11.539062 4.28125 -11.160156 4.28125 -10.671875 C 4.28125 -10.222656 4.503906 -9.84375 4.953125 -9.53125 C 5.398438 -9.226562 6.179688 -8.945312 7.296875 -8.6875 C 9.128906 -8.25 10.445312 -7.664062 11.25 -6.9375 C 12.0625 -6.21875 12.46875 -5.28125 12.46875 -4.125 C 12.46875 -2.738281 11.96875 -1.65625 10.96875 -0.875 C 9.976562 -0.09375 8.609375 0.296875 6.859375 0.296875 Z M 6.859375 0.296875 "/></g></g></g><g fill="#e6e6e6" fill-opacity="1"><g transform="translate(188.569879, 248.164955)"><g/></g></g><g fill="#e6e6e6" fill-opacity="1"><g transform="translate(193.484943, 248.164955)"><g><path d="M 1.75 0 L 1.75 -14.640625 L 7.546875 -14.640625 C 9.097656 -14.640625 10.453125 -14.332031 11.609375 -13.71875 C 12.765625 -13.101562 13.660156 -12.242188 14.296875 -11.140625 C 14.941406 -10.046875 15.265625 -8.773438 15.265625 -7.328125 C 15.265625 -5.859375 14.941406 -4.578125 14.296875 -3.484375 C 13.660156 -2.390625 12.765625 -1.535156 11.609375 -0.921875 C 10.453125 -0.304688 9.097656 0 7.546875 0 Z M 5.078125 -3.046875 L 7.484375 -3.046875 C 8.347656 -3.046875 9.109375 -3.222656 9.765625 -3.578125 C 10.421875 -3.941406 10.929688 -4.441406 11.296875 -5.078125 C 11.671875 -5.722656 11.859375 -6.472656 11.859375 -7.328125 C 11.859375 -8.191406 11.671875 -8.941406 11.296875 -9.578125 C 10.929688 -10.210938 10.414062 -10.707031 9.75 -11.0625 C 9.09375 -11.414062 8.328125 -11.59375 7.453125 -11.59375 L 5.078125 -11.59375 Z M 5.078125 -3.046875 "/></g></g></g><g fill="#e6e6e6" fill-opacity="1"><g transform="translate(209.631463, 248.164955)"><g><path d="M 1.75 0 L 1.75 -14.640625 L 11.375 -14.640625 L 11.375 -11.84375 L 5.0625 -11.84375 L 5.0625 -8.8125 L 10.8125 -8.8125 L 10.8125 -6.03125 L 5.0625 -6.03125 L 5.0625 -2.828125 L 11.609375 -2.828125 L 11.609375 0 Z M 1.75 0 "/></g></g></g><g fill="#e6e6e6" fill-opacity="1"><g transform="translate(222.306061, 248.164955)"><g/></g></g><g fill="#e6e6e6" fill-opacity="1"><g transform="translate(227.221124, 248.164955)"><g><path d="M 5.265625 0 L 5.265625 -11.53125 L 0.625 -11.53125 L 0.625 -14.640625 L 13.25 -14.640625 L 13.25 -11.53125 L 8.59375 -11.53125 L 8.59375 0 Z M 5.265625 0 "/></g></g></g><g fill="#e6e6e6" fill-opacity="1"><g transform="translate(241.087886, 248.164955)"><g><path d="M 8.703125 0.296875 C 7.179688 0.296875 5.832031 -0.0234375 4.65625 -0.671875 C 3.476562 -1.328125 2.554688 -2.222656 1.890625 -3.359375 C 1.234375 -4.503906 0.90625 -5.828125 0.90625 -7.328125 C 0.90625 -8.816406 1.234375 -10.132812 1.890625 -11.28125 C 2.554688 -12.425781 3.476562 -13.320312 4.65625 -13.96875 C 5.832031 -14.613281 7.179688 -14.9375 8.703125 -14.9375 C 10.234375 -14.9375 11.582031 -14.613281 12.75 -13.96875 C 13.925781 -13.320312 14.847656 -12.425781 15.515625 -11.28125 C 16.191406 -10.132812 16.53125 -8.816406 16.53125 -7.328125 C 16.53125 -5.828125 16.191406 -4.503906 15.515625 -3.359375 C 14.847656 -2.222656 13.925781 -1.328125 12.75 -0.671875 C 11.582031 -0.0234375 10.234375 0.296875 8.703125 0.296875 Z M 4.28125 -7.328125 C 4.28125 -6.441406 4.46875 -5.664062 4.84375 -5 C 5.226562 -4.332031 5.75 -3.804688 6.40625 -3.421875 C 7.070312 -3.046875 7.835938 -2.859375 8.703125 -2.859375 C 9.578125 -2.859375 10.347656 -3.046875 11.015625 -3.421875 C 11.679688 -3.804688 12.195312 -4.332031 12.5625 -5 C 12.9375 -5.664062 13.125 -6.441406 13.125 -7.328125 C 13.125 -8.203125 12.9375 -8.972656 12.5625 -9.640625 C 12.195312 -10.316406 11.679688 -10.84375 11.015625 -11.21875 C 10.347656 -11.59375 9.578125 -11.78125 8.703125 -11.78125 C 7.835938 -11.78125 7.070312 -11.59375 6.40625 -11.21875 C 5.75 -10.84375 5.226562 -10.316406 4.84375 -9.640625 C 4.46875 -8.972656 4.28125 -8.203125 4.28125 -7.328125 Z M 4.28125 -7.328125 "/></g></g></g><g fill="#e6e6e6" fill-opacity="1"><g transform="translate(258.510234, 248.164955)"><g><path d="M 1.75 0 L 1.75 -14.640625 L 7.546875 -14.640625 C 9.097656 -14.640625 10.453125 -14.332031 11.609375 -13.71875 C 12.765625 -13.101562 13.660156 -12.242188 14.296875 -11.140625 C 14.941406 -10.046875 15.265625 -8.773438 15.265625 -7.328125 C 15.265625 -5.859375 14.941406 -4.578125 14.296875 -3.484375 C 13.660156 -2.390625 12.765625 -1.535156 11.609375 -0.921875 C 10.453125 -0.304688 9.097656 0 7.546875 0 Z M 5.078125 -3.046875 L 7.484375 -3.046875 C 8.347656 -3.046875 9.109375 -3.222656 9.765625 -3.578125 C 10.421875 -3.941406 10.929688 -4.441406 11.296875 -5.078125 C 11.671875 -5.722656 11.859375 -6.472656 11.859375 -7.328125 C 11.859375 -8.191406 11.671875 -8.941406 11.296875 -9.578125 C 10.929688 -10.210938 10.414062 -10.707031 9.75 -11.0625 C 9.09375 -11.414062 8.328125 -11.59375 7.453125 -11.59375 L 5.078125 -11.59375 Z M 5.078125 -3.046875 "/></g></g></g><g fill="#e6e6e6" fill-opacity="1"><g transform="translate(274.656755, 248.164955)"><g><path d="M 8.703125 0.296875 C 7.179688 0.296875 5.832031 -0.0234375 4.65625 -0.671875 C 3.476562 -1.328125 2.554688 -2.222656 1.890625 -3.359375 C 1.234375 -4.503906 0.90625 -5.828125 0.90625 -7.328125 C 0.90625 -8.816406 1.234375 -10.132812 1.890625 -11.28125 C 2.554688 -12.425781 3.476562 -13.320312 4.65625 -13.96875 C 5.832031 -14.613281 7.179688 -14.9375 8.703125 -14.9375 C 10.234375 -14.9375 11.582031 -14.613281 12.75 -13.96875 C 13.925781 -13.320312 14.847656 -12.425781 15.515625 -11.28125 C 16.191406 -10.132812 16.53125 -8.816406 16.53125 -7.328125 C 16.53125 -5.828125 16.191406 -4.503906 15.515625 -3.359375 C 14.847656 -2.222656 13.925781 -1.328125 12.75 -0.671875 C 11.582031 -0.0234375 10.234375 0.296875 8.703125 0.296875 Z M 4.28125 -7.328125 C 4.28125 -6.441406 4.46875 -5.664062 4.84375 -5 C 5.226562 -4.332031 5.75 -3.804688 6.40625 -3.421875 C 7.070312 -3.046875 7.835938 -2.859375 8.703125 -2.859375 C 9.578125 -2.859375 10.347656 -3.046875 11.015625 -3.421875 C 11.679688 -3.804688 12.195312 -4.332031 12.5625 -5 C 12.9375 -5.664062 13.125 -6.441406 13.125 -7.328125 C 13.125 -8.203125 12.9375 -8.972656 12.5625 -9.640625 C 12.195312 -10.316406 11.679688 -10.84375 11.015625 -11.21875 C 10.347656 -11.59375 9.578125 -11.78125 8.703125 -11.78125 C 7.835938 -11.78125 7.070312 -11.59375 6.40625 -11.21875 C 5.75 -10.84375 5.226562 -10.316406 4.84375 -9.640625 C 4.46875 -8.972656 4.28125 -8.203125 4.28125 -7.328125 Z M 4.28125 -7.328125 "/></g></g></g></svg>