<svg xmlns="http://www.w3.org/2000/svg" xmlns:xlink="http://www.w3.org/1999/xlink" width="1920" zoomAndPan="magnify" viewBox="0 0 1440 809.999993" height="1080" preserveAspectRatio="xMidYMid meet" version="1.0"><defs><g/></defs><rect x="-144" width="1728" fill="#ffffff" y="-80.999999" height="971.999992" fill-opacity="1"/><rect x="-144" width="1728" fill="#ffffff" y="-80.999999" height="971.999992" fill-opacity="1"/><g fill="#d35400" fill-opacity="1"><g transform="translate(269.624904, 395.625235)"><g><path d="M 62.25 -68.421875 C 60.238281 -70.609375 58.078125 -72.289062 55.765625 -73.46875 C 53.453125 -74.644531 50.113281 -75.234375 45.75 -75.234375 C 41.375 -75.234375 38.132812 -74.601562 36.03125 -73.34375 C 33.9375 -72.082031 32.890625 -70.566406 32.890625 -68.796875 C 32.890625 -65.773438 35.578125 -63.632812 40.953125 -62.375 L 61.875 -56.953125 C 69.519531 -55.023438 75.273438 -51.644531 79.140625 -46.8125 C 83.003906 -41.976562 84.9375 -36.203125 84.9375 -29.484375 C 84.9375 -23.265625 83.296875 -17.84375 80.015625 -13.21875 C 76.742188 -8.601562 72.0625 -5.035156 65.96875 -2.515625 C 59.875 0.00390625 52.753906 1.265625 44.609375 1.265625 C 35.367188 1.265625 26.945312 -0.265625 19.34375 -3.328125 C 11.738281 -6.398438 6.46875 -10.414062 3.53125 -15.375 C 3.101562 -16.21875 2.890625 -16.847656 2.890625 -17.265625 C 2.890625 -18.109375 3.351562 -18.863281 4.28125 -19.53125 L 17.265625 -28.484375 C 18.191406 -29.066406 19.03125 -29.359375 19.78125 -29.359375 C 20.707031 -29.359375 21.460938 -28.984375 22.046875 -28.234375 C 24.910156 -24.535156 27.8125 -21.925781 30.75 -20.40625 C 33.6875 -18.894531 37.59375 -18.140625 42.46875 -18.140625 C 47.175781 -18.140625 50.894531 -18.789062 53.625 -20.09375 C 56.351562 -21.394531 57.71875 -23.179688 57.71875 -25.453125 C 57.71875 -27.046875 57.046875 -28.429688 55.703125 -29.609375 C 54.359375 -30.785156 52.382812 -31.671875 49.78125 -32.265625 L 30.625 -36.921875 C 23.0625 -38.765625 17.050781 -42.226562 12.59375 -47.3125 C 8.144531 -52.394531 5.921875 -58.253906 5.921875 -64.890625 C 5.921875 -70.359375 7.515625 -75.378906 10.703125 -79.953125 C 13.898438 -84.535156 18.4375 -88.148438 24.3125 -90.796875 C 30.195312 -93.441406 37.003906 -94.765625 44.734375 -94.765625 C 52.296875 -94.765625 59.3125 -93.523438 65.78125 -91.046875 C 72.25 -88.566406 76.910156 -85.269531 79.765625 -81.15625 C 80.359375 -80.394531 80.65625 -79.679688 80.65625 -79.015625 C 80.65625 -78.421875 80.359375 -77.875 79.765625 -77.375 L 66.03125 -67.421875 C 65.613281 -67.085938 65.148438 -66.921875 64.640625 -66.921875 C 64.054688 -66.921875 63.257812 -67.421875 62.25 -68.421875 Z M 62.25 -68.421875 "/></g></g></g><g fill="#d35400" fill-opacity="1"><g transform="translate(357.959166, 395.625235)"><g><path d="M 86.1875 -36.921875 C 86.1875 -23.140625 82.703125 -13.328125 75.734375 -7.484375 C 68.765625 -1.648438 58.8125 1.265625 45.875 1.265625 C 31.332031 1.265625 20.972656 -2.09375 14.796875 -8.8125 C 8.628906 -15.539062 5.546875 -25.75 5.546875 -39.4375 L 5.546875 -90.609375 C 5.546875 -91.523438 5.753906 -92.234375 6.171875 -92.734375 C 6.597656 -93.242188 7.1875 -93.5 7.9375 -93.5 L 31.875 -93.5 C 33.394531 -93.5 34.15625 -92.617188 34.15625 -90.859375 L 34.15625 -36.421875 C 34.15625 -30.203125 35.347656 -25.707031 37.734375 -22.9375 C 40.128906 -20.164062 43.554688 -18.78125 48.015625 -18.78125 C 52.378906 -18.78125 55.90625 -20.164062 58.59375 -22.9375 C 61.28125 -25.707031 62.625 -30.328125 62.625 -36.796875 L 62.625 -90.609375 C 62.625 -92.535156 63.425781 -93.5 65.03125 -93.5 L 83.921875 -93.5 C 85.429688 -93.5 86.1875 -92.617188 86.1875 -90.859375 Z M 86.1875 -36.921875 "/></g></g></g><g fill="#d35400" fill-opacity="1"><g transform="translate(449.695745, 395.625235)"><g><path d="M 48.515625 -94.765625 C 55.484375 -94.765625 61.78125 -93.523438 67.40625 -91.046875 C 73.039062 -88.566406 77.664062 -85.140625 81.28125 -80.765625 C 84.894531 -76.398438 87.25 -71.40625 88.34375 -65.78125 C 88.59375 -64.769531 88.71875 -63.972656 88.71875 -63.390625 C 88.71875 -62.628906 88.566406 -62.125 88.265625 -61.875 C 87.972656 -61.625 87.453125 -61.457031 86.703125 -61.375 L 64.640625 -59.984375 C 63.804688 -59.984375 63.257812 -60.128906 63 -60.421875 C 62.75 -60.710938 62.5 -61.363281 62.25 -62.375 C 61.5 -66.40625 60.113281 -69.578125 58.09375 -71.890625 C 56.070312 -74.203125 53.128906 -75.359375 49.265625 -75.359375 C 44.316406 -75.359375 40.492188 -73.171875 37.796875 -68.796875 C 35.109375 -64.429688 33.765625 -57.335938 33.765625 -47.515625 C 33.765625 -37.347656 35.003906 -30.117188 37.484375 -25.828125 C 39.960938 -21.546875 43.847656 -19.40625 49.140625 -19.40625 C 53.597656 -19.40625 57.398438 -20.539062 60.546875 -22.8125 C 63.703125 -25.082031 66.328125 -28.863281 68.421875 -34.15625 C 68.671875 -34.90625 69.382812 -35.28125 70.5625 -35.28125 C 71.15625 -35.28125 71.617188 -35.238281 71.953125 -35.15625 L 87.703125 -32.015625 C 88.960938 -31.585938 89.59375 -30.617188 89.59375 -29.109375 C 89.59375 -26.753906 88.144531 -23.117188 85.25 -18.203125 C 82.351562 -13.296875 77.816406 -8.820312 71.640625 -4.78125 C 65.460938 -0.75 57.671875 1.265625 48.265625 1.265625 C 39.359375 1.265625 31.546875 -0.851562 24.828125 -5.09375 C 18.109375 -9.34375 12.921875 -15.179688 9.265625 -22.609375 C 5.609375 -30.046875 3.78125 -38.515625 3.78125 -48.015625 C 3.78125 -57.421875 5.609375 -65.648438 9.265625 -72.703125 C 12.921875 -79.765625 18.128906 -85.207031 24.890625 -89.03125 C 31.648438 -92.851562 39.523438 -94.765625 48.515625 -94.765625 Z M 48.515625 -94.765625 "/></g></g></g><g fill="#d35400" fill-opacity="1"><g transform="translate(542.566433, 395.625235)"><g><path d="M 86.1875 -36.921875 C 86.1875 -23.140625 82.703125 -13.328125 75.734375 -7.484375 C 68.765625 -1.648438 58.8125 1.265625 45.875 1.265625 C 31.332031 1.265625 20.972656 -2.09375 14.796875 -8.8125 C 8.628906 -15.539062 5.546875 -25.75 5.546875 -39.4375 L 5.546875 -90.609375 C 5.546875 -91.523438 5.753906 -92.234375 6.171875 -92.734375 C 6.597656 -93.242188 7.1875 -93.5 7.9375 -93.5 L 31.875 -93.5 C 33.394531 -93.5 34.15625 -92.617188 34.15625 -90.859375 L 34.15625 -36.421875 C 34.15625 -30.203125 35.347656 -25.707031 37.734375 -22.9375 C 40.128906 -20.164062 43.554688 -18.78125 48.015625 -18.78125 C 52.378906 -18.78125 55.90625 -20.164062 58.59375 -22.9375 C 61.28125 -25.707031 62.625 -30.328125 62.625 -36.796875 L 62.625 -90.609375 C 62.625 -92.535156 63.425781 -93.5 65.03125 -93.5 L 83.921875 -93.5 C 85.429688 -93.5 86.1875 -92.617188 86.1875 -90.859375 Z M 86.1875 -36.921875 "/></g></g></g><g fill="#d35400" fill-opacity="1"><g transform="translate(634.303001, 395.625235)"><g><path d="M 88.34375 -4.03125 C 88.507812 -3.695312 88.59375 -3.234375 88.59375 -2.640625 C 88.59375 -1.890625 88.359375 -1.257812 87.890625 -0.75 C 87.429688 -0.25 86.820312 0 86.0625 0 L 61.625 0 C 59.851562 0 58.71875 -0.878906 58.21875 -2.640625 L 46.375 -35.15625 C 46.125 -35.832031 45.703125 -36.335938 45.109375 -36.671875 C 44.523438 -37.003906 43.644531 -37.171875 42.46875 -37.171875 L 36.671875 -37.171875 C 36.171875 -37.171875 35.789062 -37.003906 35.53125 -36.671875 C 35.28125 -36.335938 35.15625 -36.039062 35.15625 -35.78125 L 35.15625 -3.65625 C 35.15625 -2.3125 34.816406 -1.363281 34.140625 -0.8125 C 33.472656 -0.269531 32.425781 0 31 0 L 9.828125 0 C 8.566406 0 7.703125 -0.25 7.234375 -0.75 C 6.773438 -1.257812 6.546875 -2.0625 6.546875 -3.15625 L 6.546875 -90.609375 C 6.546875 -92.535156 7.347656 -93.5 8.953125 -93.5 L 51.03125 -93.5 C 63.21875 -93.5 72.671875 -91.164062 79.390625 -86.5 C 86.109375 -81.84375 89.46875 -75.269531 89.46875 -66.78125 C 89.46875 -60.988281 87.929688 -55.820312 84.859375 -51.28125 C 81.796875 -46.75 77.832031 -43.5625 72.96875 -41.71875 C 72.457031 -41.457031 72.203125 -41.035156 72.203125 -40.453125 C 72.203125 -40.203125 72.285156 -39.820312 72.453125 -39.3125 Z M 49.90625 -55.953125 C 53.09375 -55.953125 55.546875 -56.769531 57.265625 -58.40625 C 58.992188 -60.039062 59.859375 -62.25 59.859375 -65.03125 C 59.859375 -68.132812 58.828125 -70.546875 56.765625 -72.265625 C 54.710938 -73.992188 52.171875 -74.859375 49.140625 -74.859375 L 38.0625 -74.859375 C 36.96875 -74.859375 36.207031 -74.664062 35.78125 -74.28125 C 35.363281 -73.90625 35.15625 -73.253906 35.15625 -72.328125 L 35.15625 -58.59375 C 35.15625 -57.675781 35.300781 -57.003906 35.59375 -56.578125 C 35.894531 -56.160156 36.460938 -55.953125 37.296875 -55.953125 Z M 49.90625 -55.953125 "/></g></g></g><g fill="#d35400" fill-opacity="1"><g transform="translate(727.425723, 395.625235)"><g><path d="M 62.25 -68.421875 C 60.238281 -70.609375 58.078125 -72.289062 55.765625 -73.46875 C 53.453125 -74.644531 50.113281 -75.234375 45.75 -75.234375 C 41.375 -75.234375 38.132812 -74.601562 36.03125 -73.34375 C 33.9375 -72.082031 32.890625 -70.566406 32.890625 -68.796875 C 32.890625 -65.773438 35.578125 -63.632812 40.953125 -62.375 L 61.875 -56.953125 C 69.519531 -55.023438 75.273438 -51.644531 79.140625 -46.8125 C 83.003906 -41.976562 84.9375 -36.203125 84.9375 -29.484375 C 84.9375 -23.265625 83.296875 -17.84375 80.015625 -13.21875 C 76.742188 -8.601562 72.0625 -5.035156 65.96875 -2.515625 C 59.875 0.00390625 52.753906 1.265625 44.609375 1.265625 C 35.367188 1.265625 26.945312 -0.265625 19.34375 -3.328125 C 11.738281 -6.398438 6.46875 -10.414062 3.53125 -15.375 C 3.101562 -16.21875 2.890625 -16.847656 2.890625 -17.265625 C 2.890625 -18.109375 3.351562 -18.863281 4.28125 -19.53125 L 17.265625 -28.484375 C 18.191406 -29.066406 19.03125 -29.359375 19.78125 -29.359375 C 20.707031 -29.359375 21.460938 -28.984375 22.046875 -28.234375 C 24.910156 -24.535156 27.8125 -21.925781 30.75 -20.40625 C 33.6875 -18.894531 37.59375 -18.140625 42.46875 -18.140625 C 47.175781 -18.140625 50.894531 -18.789062 53.625 -20.09375 C 56.351562 -21.394531 57.71875 -23.179688 57.71875 -25.453125 C 57.71875 -27.046875 57.046875 -28.429688 55.703125 -29.609375 C 54.359375 -30.785156 52.382812 -31.671875 49.78125 -32.265625 L 30.625 -36.921875 C 23.0625 -38.765625 17.050781 -42.226562 12.59375 -47.3125 C 8.144531 -52.394531 5.921875 -58.253906 5.921875 -64.890625 C 5.921875 -70.359375 7.515625 -75.378906 10.703125 -79.953125 C 13.898438 -84.535156 18.4375 -88.148438 24.3125 -90.796875 C 30.195312 -93.441406 37.003906 -94.765625 44.734375 -94.765625 C 52.296875 -94.765625 59.3125 -93.523438 65.78125 -91.046875 C 72.25 -88.566406 76.910156 -85.269531 79.765625 -81.15625 C 80.359375 -80.394531 80.65625 -79.679688 80.65625 -79.015625 C 80.65625 -78.421875 80.359375 -77.875 79.765625 -77.375 L 66.03125 -67.421875 C 65.613281 -67.085938 65.148438 -66.921875 64.640625 -66.921875 C 64.054688 -66.921875 63.257812 -67.421875 62.25 -68.421875 Z M 62.25 -68.421875 "/></g></g></g><g fill="#d35400" fill-opacity="1"><g transform="translate(815.760008, 395.625235)"><g><path d="M 5.421875 0 C 4.742188 0 4.195312 -0.226562 3.78125 -0.6875 C 3.363281 -1.15625 3.15625 -1.804688 3.15625 -2.640625 C 3.15625 -3.234375 3.28125 -3.90625 3.53125 -4.65625 L 34.03125 -90.609375 C 34.445312 -91.703125 34.90625 -92.457031 35.40625 -92.875 C 35.914062 -93.289062 36.71875 -93.5 37.8125 -93.5 L 62.625 -93.5 C 63.632812 -93.5 64.535156 -93.179688 65.328125 -92.546875 C 66.128906 -91.921875 66.742188 -91.101562 67.171875 -90.09375 L 97.40625 -4.28125 C 97.570312 -3.613281 97.65625 -3.109375 97.65625 -2.765625 C 97.65625 -2.015625 97.488281 -1.363281 97.15625 -0.8125 C 96.820312 -0.269531 96.316406 0 95.640625 0 L 70.953125 0 C 69.515625 0 68.585938 -0.710938 68.171875 -2.140625 L 63.265625 -16.640625 C 63.003906 -17.222656 62.769531 -17.617188 62.5625 -17.828125 C 62.351562 -18.035156 61.957031 -18.140625 61.375 -18.140625 L 34.65625 -18.140625 C 33.644531 -18.140625 33.015625 -17.679688 32.765625 -16.765625 L 27.59375 -1.890625 C 27.09375 -0.628906 26.085938 0 24.578125 0 Z M 55.0625 -39.5625 C 55.988281 -39.5625 56.453125 -39.984375 56.453125 -40.828125 C 56.453125 -40.992188 56.367188 -41.414062 56.203125 -42.09375 L 48.640625 -63.640625 C 48.472656 -64.054688 48.21875 -64.265625 47.875 -64.265625 C 47.539062 -64.265625 47.289062 -64.054688 47.125 -63.640625 L 39.4375 -42.21875 C 39.269531 -41.882812 39.1875 -41.460938 39.1875 -40.953125 C 39.1875 -40.023438 39.691406 -39.5625 40.703125 -39.5625 Z M 55.0625 -39.5625 "/></g></g></g><g fill="#d35400" fill-opacity="1"><g transform="translate(916.443429, 395.625235)"><g><path d="M 6.546875 -90.609375 C 6.546875 -91.523438 6.753906 -92.234375 7.171875 -92.734375 C 7.597656 -93.242188 8.191406 -93.5 8.953125 -93.5 L 32.890625 -93.5 C 34.398438 -93.5 35.15625 -92.617188 35.15625 -90.859375 L 35.15625 -22.4375 C 35.15625 -21.757812 35.257812 -21.296875 35.46875 -21.046875 C 35.675781 -20.796875 36.078125 -20.671875 36.671875 -20.671875 L 74.59375 -20.671875 C 76.53125 -20.671875 77.5 -19.867188 77.5 -18.265625 L 77.5 -2.765625 C 77.5 -1.929688 77.222656 -1.257812 76.671875 -0.75 C 76.128906 -0.25 75.351562 0 74.34375 0 L 9.953125 0 C 8.691406 0 7.804688 -0.25 7.296875 -0.75 C 6.796875 -1.257812 6.546875 -2.0625 6.546875 -3.15625 Z M 6.546875 -90.609375 "/></g></g></g><g fill="#d35400" fill-opacity="1"><g transform="translate(997.469014, 395.625235)"><g><path d="M 6.546875 -90.609375 C 6.546875 -92.535156 7.347656 -93.5 8.953125 -93.5 L 77 -93.5 C 78.507812 -93.5 79.265625 -92.617188 79.265625 -90.859375 L 79.140625 -76.234375 C 79.140625 -73.972656 78.046875 -72.84375 75.859375 -72.84375 L 38.0625 -72.84375 C 36.125 -72.84375 35.15625 -72.039062 35.15625 -70.4375 L 35.15625 -59.734375 C 35.15625 -58.890625 35.363281 -58.234375 35.78125 -57.765625 C 36.207031 -57.304688 36.753906 -57.078125 37.421875 -57.078125 L 60.109375 -57.078125 C 61.867188 -57.078125 62.75 -56.238281 62.75 -54.5625 L 62.75 -38.9375 C 62.75 -37.507812 61.992188 -36.796875 60.484375 -36.796875 L 37.171875 -36.796875 C 36.585938 -36.796875 36.101562 -36.625 35.71875 -36.28125 C 35.34375 -35.945312 35.15625 -35.53125 35.15625 -35.03125 L 35.15625 -22.4375 C 35.15625 -21.757812 35.257812 -21.296875 35.46875 -21.046875 C 35.675781 -20.796875 36.078125 -20.671875 36.671875 -20.671875 L 77.625 -20.671875 C 79.46875 -20.671875 80.390625 -19.867188 80.390625 -18.265625 L 80.390625 -2.765625 C 80.390625 -1.929688 80.140625 -1.257812 79.640625 -0.75 C 79.140625 -0.25 78.382812 0 77.375 0 L 9.953125 0 C 8.691406 0 7.804688 -0.25 7.296875 -0.75 C 6.796875 -1.257812 6.546875 -2.0625 6.546875 -3.15625 Z M 6.546875 -90.609375 "/></g></g></g><g fill="#d35400" fill-opacity="1"><g transform="translate(1082.022904, 395.625235)"><g><path d="M 62.25 -68.421875 C 60.238281 -70.609375 58.078125 -72.289062 55.765625 -73.46875 C 53.453125 -74.644531 50.113281 -75.234375 45.75 -75.234375 C 41.375 -75.234375 38.132812 -74.601562 36.03125 -73.34375 C 33.9375 -72.082031 32.890625 -70.566406 32.890625 -68.796875 C 32.890625 -65.773438 35.578125 -63.632812 40.953125 -62.375 L 61.875 -56.953125 C 69.519531 -55.023438 75.273438 -51.644531 79.140625 -46.8125 C 83.003906 -41.976562 84.9375 -36.203125 84.9375 -29.484375 C 84.9375 -23.265625 83.296875 -17.84375 80.015625 -13.21875 C 76.742188 -8.601562 72.0625 -5.035156 65.96875 -2.515625 C 59.875 0.00390625 52.753906 1.265625 44.609375 1.265625 C 35.367188 1.265625 26.945312 -0.265625 19.34375 -3.328125 C 11.738281 -6.398438 6.46875 -10.414062 3.53125 -15.375 C 3.101562 -16.21875 2.890625 -16.847656 2.890625 -17.265625 C 2.890625 -18.109375 3.351562 -18.863281 4.28125 -19.53125 L 17.265625 -28.484375 C 18.191406 -29.066406 19.03125 -29.359375 19.78125 -29.359375 C 20.707031 -29.359375 21.460938 -28.984375 22.046875 -28.234375 C 24.910156 -24.535156 27.8125 -21.925781 30.75 -20.40625 C 33.6875 -18.894531 37.59375 -18.140625 42.46875 -18.140625 C 47.175781 -18.140625 50.894531 -18.789062 53.625 -20.09375 C 56.351562 -21.394531 57.71875 -23.179688 57.71875 -25.453125 C 57.71875 -27.046875 57.046875 -28.429688 55.703125 -29.609375 C 54.359375 -30.785156 52.382812 -31.671875 49.78125 -32.265625 L 30.625 -36.921875 C 23.0625 -38.765625 17.050781 -42.226562 12.59375 -47.3125 C 8.144531 -52.394531 5.921875 -58.253906 5.921875 -64.890625 C 5.921875 -70.359375 7.515625 -75.378906 10.703125 -79.953125 C 13.898438 -84.535156 18.4375 -88.148438 24.3125 -90.796875 C 30.195312 -93.441406 37.003906 -94.765625 44.734375 -94.765625 C 52.296875 -94.765625 59.3125 -93.523438 65.78125 -91.046875 C 72.25 -88.566406 76.910156 -85.269531 79.765625 -81.15625 C 80.359375 -80.394531 80.65625 -79.679688 80.65625 -79.015625 C 80.65625 -78.421875 80.359375 -77.875 79.765625 -77.375 L 66.03125 -67.421875 C 65.613281 -67.085938 65.148438 -66.921875 64.640625 -66.921875 C 64.054688 -66.921875 63.257812 -67.421875 62.25 -68.421875 Z M 62.25 -68.421875 "/></g></g></g><path stroke-linecap="butt" transform="matrix(0.75, 0, 0, 0.75, 464.399983, 452.613981)" fill="none" stroke-linejoin="miter" d="M -0.00206048 1.999067 L 681.60214 1.999067 " stroke="#000000" stroke-width="4" stroke-opacity="1" stroke-miterlimit="4"/></svg>