<svg xmlns="http://www.w3.org/2000/svg" xmlns:xlink="http://www.w3.org/1999/xlink" width="1920" zoomAndPan="magnify" viewBox="0 0 1440 599.999999" height="800" preserveAspectRatio="xMidYMid meet" version="1.0"><defs><g/></defs><rect x="-144" width="1728" fill="#ffffff" y="-60" height="719.999999" fill-opacity="1"/><rect x="-144" width="1728" fill="#ffffff" y="-60" height="719.999999" fill-opacity="1"/><g fill="#d35400" fill-opacity="1"><g transform="translate(328.412082, 291.848983)"><g><path d="M 54.125 -59.5 C 52.375 -61.394531 50.492188 -62.851562 48.484375 -63.875 C 46.472656 -64.894531 43.566406 -65.40625 39.765625 -65.40625 C 35.972656 -65.40625 33.160156 -64.859375 31.328125 -63.765625 C 29.503906 -62.671875 28.59375 -61.359375 28.59375 -59.828125 C 28.59375 -57.191406 30.929688 -55.328125 35.609375 -54.234375 L 53.796875 -49.515625 C 60.441406 -47.835938 65.441406 -44.898438 68.796875 -40.703125 C 72.160156 -36.503906 73.84375 -31.484375 73.84375 -25.640625 C 73.84375 -20.234375 72.414062 -15.519531 69.5625 -11.5 C 66.71875 -7.488281 62.644531 -4.382812 57.34375 -2.1875 C 52.050781 0 45.863281 1.09375 38.78125 1.09375 C 30.75 1.09375 23.425781 -0.238281 16.8125 -2.90625 C 10.207031 -5.570312 5.625 -9.054688 3.0625 -13.359375 C 2.695312 -14.097656 2.515625 -14.648438 2.515625 -15.015625 C 2.515625 -15.742188 2.914062 -16.398438 3.71875 -16.984375 L 15.015625 -24.765625 C 15.816406 -25.273438 16.546875 -25.53125 17.203125 -25.53125 C 18.003906 -25.53125 18.660156 -25.203125 19.171875 -24.546875 C 21.660156 -21.328125 24.179688 -19.0625 26.734375 -17.75 C 29.285156 -16.4375 32.679688 -15.78125 36.921875 -15.78125 C 41.015625 -15.78125 44.242188 -16.34375 46.609375 -17.46875 C 48.984375 -18.601562 50.171875 -20.15625 50.171875 -22.125 C 50.171875 -23.519531 49.585938 -24.726562 48.421875 -25.75 C 47.253906 -26.769531 45.539062 -27.535156 43.28125 -28.046875 L 26.625 -32.109375 C 20.050781 -33.710938 14.828125 -36.722656 10.953125 -41.140625 C 7.085938 -45.554688 5.15625 -50.648438 5.15625 -56.421875 C 5.15625 -61.171875 6.539062 -65.535156 9.3125 -69.515625 C 12.082031 -73.492188 16.023438 -76.632812 21.140625 -78.9375 C 26.253906 -81.238281 32.171875 -82.390625 38.890625 -82.390625 C 45.460938 -82.390625 51.5625 -81.3125 57.1875 -79.15625 C 62.8125 -77 66.867188 -74.132812 69.359375 -70.5625 C 69.867188 -69.90625 70.125 -69.285156 70.125 -68.703125 C 70.125 -68.179688 69.867188 -67.703125 69.359375 -67.265625 L 57.40625 -58.609375 C 57.039062 -58.316406 56.640625 -58.171875 56.203125 -58.171875 C 55.691406 -58.171875 55 -58.613281 54.125 -59.5 Z M 54.125 -59.5 "/></g></g></g><g fill="#d35400" fill-opacity="1"><g transform="translate(405.216126, 291.848983)"><g><path d="M 74.9375 -32.109375 C 74.9375 -20.128906 71.90625 -11.597656 65.84375 -6.515625 C 59.78125 -1.441406 51.125 1.09375 39.875 1.09375 C 27.238281 1.09375 18.238281 -1.828125 12.875 -7.671875 C 7.507812 -13.515625 4.828125 -22.390625 4.828125 -34.296875 L 4.828125 -78.78125 C 4.828125 -79.582031 5.007812 -80.203125 5.375 -80.640625 C 5.738281 -81.078125 6.25 -81.296875 6.90625 -81.296875 L 27.71875 -81.296875 C 29.03125 -81.296875 29.6875 -80.53125 29.6875 -79 L 29.6875 -31.65625 C 29.6875 -26.257812 30.726562 -22.351562 32.8125 -19.9375 C 34.894531 -17.53125 37.875 -16.328125 41.75 -16.328125 C 45.539062 -16.328125 48.601562 -17.53125 50.9375 -19.9375 C 53.28125 -22.351562 54.453125 -26.375 54.453125 -32 L 54.453125 -78.78125 C 54.453125 -80.457031 55.144531 -81.296875 56.53125 -81.296875 L 72.96875 -81.296875 C 74.28125 -81.296875 74.9375 -80.53125 74.9375 -79 Z M 74.9375 -32.109375 "/></g></g></g><g fill="#d35400" fill-opacity="1"><g transform="translate(484.978384, 291.848983)"><g><path d="M 42.1875 -82.390625 C 48.25 -82.390625 53.722656 -81.3125 58.609375 -79.15625 C 63.503906 -77 67.519531 -74.019531 70.65625 -70.21875 C 73.800781 -66.425781 75.847656 -62.082031 76.796875 -57.1875 C 77.015625 -56.3125 77.125 -55.617188 77.125 -55.109375 C 77.125 -54.453125 76.992188 -54.015625 76.734375 -53.796875 C 76.484375 -53.578125 76.03125 -53.429688 75.375 -53.359375 L 56.203125 -52.15625 C 55.472656 -52.15625 55 -52.28125 54.78125 -52.53125 C 54.5625 -52.789062 54.34375 -53.359375 54.125 -54.234375 C 53.46875 -57.742188 52.257812 -60.5 50.5 -62.5 C 48.75 -64.507812 46.195312 -65.515625 42.84375 -65.515625 C 38.53125 -65.515625 35.203125 -63.613281 32.859375 -59.8125 C 30.523438 -56.019531 29.359375 -49.851562 29.359375 -41.3125 C 29.359375 -32.46875 30.4375 -26.179688 32.59375 -22.453125 C 34.75 -18.734375 38.128906 -16.875 42.734375 -16.875 C 46.597656 -16.875 49.898438 -17.859375 52.640625 -19.828125 C 55.378906 -21.796875 57.664062 -25.082031 59.5 -29.6875 C 59.71875 -30.34375 60.335938 -30.671875 61.359375 -30.671875 C 61.867188 -30.671875 62.269531 -30.632812 62.5625 -30.5625 L 76.25 -27.828125 C 77.351562 -27.460938 77.90625 -26.625 77.90625 -25.3125 C 77.90625 -23.257812 76.644531 -20.097656 74.125 -15.828125 C 71.601562 -11.554688 67.65625 -7.664062 62.28125 -4.15625 C 56.914062 -0.65625 50.144531 1.09375 41.96875 1.09375 C 34.21875 1.09375 27.421875 -0.75 21.578125 -4.4375 C 15.734375 -8.125 11.222656 -13.195312 8.046875 -19.65625 C 4.867188 -26.125 3.28125 -33.488281 3.28125 -41.75 C 3.28125 -49.925781 4.867188 -57.082031 8.046875 -63.21875 C 11.222656 -69.351562 15.75 -74.082031 21.625 -77.40625 C 27.507812 -80.726562 34.363281 -82.390625 42.1875 -82.390625 Z M 42.1875 -82.390625 "/></g></g></g><g fill="#d35400" fill-opacity="1"><g transform="translate(565.726717, 291.848983)"><g><path d="M 74.9375 -32.109375 C 74.9375 -20.128906 71.90625 -11.597656 65.84375 -6.515625 C 59.78125 -1.441406 51.125 1.09375 39.875 1.09375 C 27.238281 1.09375 18.238281 -1.828125 12.875 -7.671875 C 7.507812 -13.515625 4.828125 -22.390625 4.828125 -34.296875 L 4.828125 -78.78125 C 4.828125 -79.582031 5.007812 -80.203125 5.375 -80.640625 C 5.738281 -81.078125 6.25 -81.296875 6.90625 -81.296875 L 27.71875 -81.296875 C 29.03125 -81.296875 29.6875 -80.53125 29.6875 -79 L 29.6875 -31.65625 C 29.6875 -26.257812 30.726562 -22.351562 32.8125 -19.9375 C 34.894531 -17.53125 37.875 -16.328125 41.75 -16.328125 C 45.539062 -16.328125 48.601562 -17.53125 50.9375 -19.9375 C 53.28125 -22.351562 54.453125 -26.375 54.453125 -32 L 54.453125 -78.78125 C 54.453125 -80.457031 55.144531 -81.296875 56.53125 -81.296875 L 72.96875 -81.296875 C 74.28125 -81.296875 74.9375 -80.53125 74.9375 -79 Z M 74.9375 -32.109375 "/></g></g></g><g fill="#d35400" fill-opacity="1"><g transform="translate(645.488966, 291.848983)"><g><path d="M 76.796875 -3.5 C 76.941406 -3.207031 77.015625 -2.804688 77.015625 -2.296875 C 77.015625 -1.640625 76.8125 -1.09375 76.40625 -0.65625 C 76.007812 -0.21875 75.484375 0 74.828125 0 L 53.578125 0 C 52.046875 0 51.0625 -0.765625 50.625 -2.296875 L 40.3125 -30.5625 C 40.09375 -31.144531 39.726562 -31.582031 39.21875 -31.875 C 38.707031 -32.175781 37.941406 -32.328125 36.921875 -32.328125 L 31.875 -32.328125 C 31.4375 -32.328125 31.109375 -32.175781 30.890625 -31.875 C 30.671875 -31.582031 30.5625 -31.328125 30.5625 -31.109375 L 30.5625 -3.171875 C 30.5625 -2.003906 30.269531 -1.179688 29.6875 -0.703125 C 29.101562 -0.234375 28.191406 0 26.953125 0 L 8.546875 0 C 7.453125 0 6.703125 -0.21875 6.296875 -0.65625 C 5.898438 -1.09375 5.703125 -1.785156 5.703125 -2.734375 L 5.703125 -78.78125 C 5.703125 -80.457031 6.394531 -81.296875 7.78125 -81.296875 L 44.375 -81.296875 C 54.96875 -81.296875 63.1875 -79.269531 69.03125 -75.21875 C 74.875 -71.164062 77.796875 -65.445312 77.796875 -58.0625 C 77.796875 -53.03125 76.460938 -48.539062 73.796875 -44.59375 C 71.128906 -40.644531 67.675781 -37.867188 63.4375 -36.265625 C 63 -36.046875 62.78125 -35.679688 62.78125 -35.171875 C 62.78125 -34.953125 62.851562 -34.625 63 -34.1875 Z M 43.390625 -48.640625 C 46.160156 -48.640625 48.296875 -49.351562 49.796875 -50.78125 C 51.296875 -52.207031 52.046875 -54.125 52.046875 -56.53125 C 52.046875 -59.238281 51.148438 -61.335938 49.359375 -62.828125 C 47.566406 -64.328125 45.359375 -65.078125 42.734375 -65.078125 L 33.09375 -65.078125 C 32.132812 -65.078125 31.472656 -64.910156 31.109375 -64.578125 C 30.742188 -64.253906 30.5625 -63.691406 30.5625 -62.890625 L 30.5625 -50.953125 C 30.5625 -50.140625 30.6875 -49.550781 30.9375 -49.1875 C 31.195312 -48.820312 31.695312 -48.640625 32.4375 -48.640625 Z M 43.390625 -48.640625 "/></g></g></g><g fill="#d35400" fill-opacity="1"><g transform="translate(726.456434, 291.848983)"><g><path d="M 54.125 -59.5 C 52.375 -61.394531 50.492188 -62.851562 48.484375 -63.875 C 46.472656 -64.894531 43.566406 -65.40625 39.765625 -65.40625 C 35.972656 -65.40625 33.160156 -64.859375 31.328125 -63.765625 C 29.503906 -62.671875 28.59375 -61.359375 28.59375 -59.828125 C 28.59375 -57.191406 30.929688 -55.328125 35.609375 -54.234375 L 53.796875 -49.515625 C 60.441406 -47.835938 65.441406 -44.898438 68.796875 -40.703125 C 72.160156 -36.503906 73.84375 -31.484375 73.84375 -25.640625 C 73.84375 -20.234375 72.414062 -15.519531 69.5625 -11.5 C 66.71875 -7.488281 62.644531 -4.382812 57.34375 -2.1875 C 52.050781 0 45.863281 1.09375 38.78125 1.09375 C 30.75 1.09375 23.425781 -0.238281 16.8125 -2.90625 C 10.207031 -5.570312 5.625 -9.054688 3.0625 -13.359375 C 2.695312 -14.097656 2.515625 -14.648438 2.515625 -15.015625 C 2.515625 -15.742188 2.914062 -16.398438 3.71875 -16.984375 L 15.015625 -24.765625 C 15.816406 -25.273438 16.546875 -25.53125 17.203125 -25.53125 C 18.003906 -25.53125 18.660156 -25.203125 19.171875 -24.546875 C 21.660156 -21.328125 24.179688 -19.0625 26.734375 -17.75 C 29.285156 -16.4375 32.679688 -15.78125 36.921875 -15.78125 C 41.015625 -15.78125 44.242188 -16.34375 46.609375 -17.46875 C 48.984375 -18.601562 50.171875 -20.15625 50.171875 -22.125 C 50.171875 -23.519531 49.585938 -24.726562 48.421875 -25.75 C 47.253906 -26.769531 45.539062 -27.535156 43.28125 -28.046875 L 26.625 -32.109375 C 20.050781 -33.710938 14.828125 -36.722656 10.953125 -41.140625 C 7.085938 -45.554688 5.15625 -50.648438 5.15625 -56.421875 C 5.15625 -61.171875 6.539062 -65.535156 9.3125 -69.515625 C 12.082031 -73.492188 16.023438 -76.632812 21.140625 -78.9375 C 26.253906 -81.238281 32.171875 -82.390625 38.890625 -82.390625 C 45.460938 -82.390625 51.5625 -81.3125 57.1875 -79.15625 C 62.8125 -77 66.867188 -74.132812 69.359375 -70.5625 C 69.867188 -69.90625 70.125 -69.285156 70.125 -68.703125 C 70.125 -68.179688 69.867188 -67.703125 69.359375 -67.265625 L 57.40625 -58.609375 C 57.039062 -58.316406 56.640625 -58.171875 56.203125 -58.171875 C 55.691406 -58.171875 55 -58.613281 54.125 -59.5 Z M 54.125 -59.5 "/></g></g></g><g fill="#d35400" fill-opacity="1"><g transform="translate(803.260498, 291.848983)"><g><path d="M 4.71875 0 C 4.125 0 3.644531 -0.195312 3.28125 -0.59375 C 2.914062 -1 2.734375 -1.566406 2.734375 -2.296875 C 2.734375 -2.804688 2.84375 -3.390625 3.0625 -4.046875 L 29.578125 -78.78125 C 29.941406 -79.726562 30.34375 -80.382812 30.78125 -80.75 C 31.21875 -81.113281 31.914062 -81.296875 32.875 -81.296875 L 54.453125 -81.296875 C 55.328125 -81.296875 56.109375 -81.019531 56.796875 -80.46875 C 57.492188 -79.925781 58.023438 -79.21875 58.390625 -78.34375 L 84.6875 -3.71875 C 84.832031 -3.132812 84.90625 -2.695312 84.90625 -2.40625 C 84.90625 -1.75 84.757812 -1.179688 84.46875 -0.703125 C 84.175781 -0.234375 83.738281 0 83.15625 0 L 61.6875 0 C 60.445312 0 59.640625 -0.617188 59.265625 -1.859375 L 55 -14.46875 C 54.78125 -14.976562 54.578125 -15.320312 54.390625 -15.5 C 54.210938 -15.6875 53.867188 -15.78125 53.359375 -15.78125 L 30.125 -15.78125 C 29.25 -15.78125 28.703125 -15.378906 28.484375 -14.578125 L 24 -1.640625 C 23.5625 -0.546875 22.679688 0 21.359375 0 Z M 47.875 -34.40625 C 48.675781 -34.40625 49.078125 -34.769531 49.078125 -35.5 C 49.078125 -35.644531 49.003906 -36.007812 48.859375 -36.59375 L 42.296875 -55.328125 C 42.148438 -55.691406 41.929688 -55.875 41.640625 -55.875 C 41.347656 -55.875 41.125 -55.691406 40.96875 -55.328125 L 34.296875 -36.703125 C 34.148438 -36.410156 34.078125 -36.046875 34.078125 -35.609375 C 34.078125 -34.804688 34.515625 -34.40625 35.390625 -34.40625 Z M 47.875 -34.40625 "/></g></g></g><g fill="#d35400" fill-opacity="1"><g transform="translate(890.801772, 291.848983)"><g><path d="M 5.703125 -78.78125 C 5.703125 -79.582031 5.882812 -80.203125 6.25 -80.640625 C 6.613281 -81.078125 7.125 -81.296875 7.78125 -81.296875 L 28.59375 -81.296875 C 29.90625 -81.296875 30.5625 -80.53125 30.5625 -79 L 30.5625 -19.5 C 30.5625 -18.914062 30.648438 -18.515625 30.828125 -18.296875 C 31.015625 -18.078125 31.363281 -17.96875 31.875 -17.96875 L 64.859375 -17.96875 C 66.535156 -17.96875 67.375 -17.273438 67.375 -15.890625 L 67.375 -2.40625 C 67.375 -1.675781 67.132812 -1.09375 66.65625 -0.65625 C 66.1875 -0.21875 65.515625 0 64.640625 0 L 8.65625 0 C 7.5625 0 6.796875 -0.21875 6.359375 -0.65625 C 5.921875 -1.09375 5.703125 -1.785156 5.703125 -2.734375 Z M 5.703125 -78.78125 "/></g></g></g><g fill="#d35400" fill-opacity="1"><g transform="translate(961.251137, 291.848983)"><g><path d="M 5.703125 -78.78125 C 5.703125 -80.457031 6.394531 -81.296875 7.78125 -81.296875 L 66.9375 -81.296875 C 68.257812 -81.296875 68.921875 -80.53125 68.921875 -79 L 68.8125 -66.28125 C 68.8125 -64.3125 67.859375 -63.328125 65.953125 -63.328125 L 33.09375 -63.328125 C 31.40625 -63.328125 30.5625 -62.632812 30.5625 -61.25 L 30.5625 -51.9375 C 30.5625 -51.207031 30.742188 -50.640625 31.109375 -50.234375 C 31.472656 -49.828125 31.953125 -49.625 32.546875 -49.625 L 52.265625 -49.625 C 53.796875 -49.625 54.5625 -48.894531 54.5625 -47.4375 L 54.5625 -33.859375 C 54.5625 -32.617188 53.90625 -32 52.59375 -32 L 32.328125 -32 C 31.804688 -32 31.378906 -31.847656 31.046875 -31.546875 C 30.722656 -31.253906 30.5625 -30.890625 30.5625 -30.453125 L 30.5625 -19.5 C 30.5625 -18.914062 30.648438 -18.515625 30.828125 -18.296875 C 31.015625 -18.078125 31.363281 -17.96875 31.875 -17.96875 L 67.484375 -17.96875 C 69.097656 -17.96875 69.90625 -17.273438 69.90625 -15.890625 L 69.90625 -2.40625 C 69.90625 -1.675781 69.6875 -1.09375 69.25 -0.65625 C 68.8125 -0.21875 68.148438 0 67.265625 0 L 8.65625 0 C 7.5625 0 6.796875 -0.21875 6.359375 -0.65625 C 5.921875 -1.09375 5.703125 -1.785156 5.703125 -2.734375 Z M 5.703125 -78.78125 "/></g></g></g><g fill="#d35400" fill-opacity="1"><g transform="translate(1034.768257, 291.848983)"><g><path d="M 54.125 -59.5 C 52.375 -61.394531 50.492188 -62.851562 48.484375 -63.875 C 46.472656 -64.894531 43.566406 -65.40625 39.765625 -65.40625 C 35.972656 -65.40625 33.160156 -64.859375 31.328125 -63.765625 C 29.503906 -62.671875 28.59375 -61.359375 28.59375 -59.828125 C 28.59375 -57.191406 30.929688 -55.328125 35.609375 -54.234375 L 53.796875 -49.515625 C 60.441406 -47.835938 65.441406 -44.898438 68.796875 -40.703125 C 72.160156 -36.503906 73.84375 -31.484375 73.84375 -25.640625 C 73.84375 -20.234375 72.414062 -15.519531 69.5625 -11.5 C 66.71875 -7.488281 62.644531 -4.382812 57.34375 -2.1875 C 52.050781 0 45.863281 1.09375 38.78125 1.09375 C 30.75 1.09375 23.425781 -0.238281 16.8125 -2.90625 C 10.207031 -5.570312 5.625 -9.054688 3.0625 -13.359375 C 2.695312 -14.097656 2.515625 -14.648438 2.515625 -15.015625 C 2.515625 -15.742188 2.914062 -16.398438 3.71875 -16.984375 L 15.015625 -24.765625 C 15.816406 -25.273438 16.546875 -25.53125 17.203125 -25.53125 C 18.003906 -25.53125 18.660156 -25.203125 19.171875 -24.546875 C 21.660156 -21.328125 24.179688 -19.0625 26.734375 -17.75 C 29.285156 -16.4375 32.679688 -15.78125 36.921875 -15.78125 C 41.015625 -15.78125 44.242188 -16.34375 46.609375 -17.46875 C 48.984375 -18.601562 50.171875 -20.15625 50.171875 -22.125 C 50.171875 -23.519531 49.585938 -24.726562 48.421875 -25.75 C 47.253906 -26.769531 45.539062 -27.535156 43.28125 -28.046875 L 26.625 -32.109375 C 20.050781 -33.710938 14.828125 -36.722656 10.953125 -41.140625 C 7.085938 -45.554688 5.15625 -50.648438 5.15625 -56.421875 C 5.15625 -61.171875 6.539062 -65.535156 9.3125 -69.515625 C 12.082031 -73.492188 16.023438 -76.632812 21.140625 -78.9375 C 26.253906 -81.238281 32.171875 -82.390625 38.890625 -82.390625 C 45.460938 -82.390625 51.5625 -81.3125 57.1875 -79.15625 C 62.8125 -77 66.867188 -74.132812 69.359375 -70.5625 C 69.867188 -69.90625 70.125 -69.285156 70.125 -68.703125 C 70.125 -68.179688 69.867188 -67.703125 69.359375 -67.265625 L 57.40625 -58.609375 C 57.039062 -58.316406 56.640625 -58.171875 56.203125 -58.171875 C 55.691406 -58.171875 55 -58.613281 54.125 -59.5 Z M 54.125 -59.5 "/></g></g></g><path stroke-linecap="butt" transform="matrix(0.75, 0, 0, 0.75, 497.763315, 341.578131)" fill="none" stroke-linejoin="miter" d="M -0.00212898 1.499992 L 592.633313 1.499992 " stroke="#000000" stroke-width="3" stroke-opacity="1" stroke-miterlimit="4"/></svg>