<svg xmlns="http://www.w3.org/2000/svg" xmlns:xlink="http://www.w3.org/1999/xlink" width="1920" zoomAndPan="magnify" viewBox="0 0 1440 599.999999" height="800" preserveAspectRatio="xMidYMid meet" version="1.0"><defs><g/><clipPath id="224a5d3ef3"><path d="M 673 226 L 767 226 L 767 269.308594 L 673 269.308594 Z M 673 226 " clip-rule="nonzero"/></clipPath><clipPath id="2c868fa3fc"><path d="M 662 88.558594 L 778 88.558594 L 778 245 L 662 245 Z M 662 88.558594 " clip-rule="nonzero"/></clipPath></defs><rect x="-144" width="1728" fill="#ffffff" y="-60" height="719.999999" fill-opacity="1"/><rect x="-144" width="1728" fill="#ffffff" y="-60" height="719.999999" fill-opacity="1"/><g fill="#d35400" fill-opacity="1"><g transform="translate(195.110196, 408.305173)"><g><path d="M 72.546875 -79.75 C 70.203125 -82.289062 67.679688 -84.242188 64.984375 -85.609375 C 62.296875 -86.984375 58.40625 -87.671875 53.3125 -87.671875 C 48.21875 -87.671875 44.445312 -86.9375 42 -85.46875 C 39.550781 -84 38.328125 -82.238281 38.328125 -80.1875 C 38.328125 -76.65625 41.460938 -74.160156 47.734375 -72.703125 L 72.109375 -66.375 C 81.015625 -64.125 87.71875 -60.179688 92.21875 -54.546875 C 96.726562 -48.921875 98.984375 -42.191406 98.984375 -34.359375 C 98.984375 -27.117188 97.070312 -20.804688 93.25 -15.421875 C 89.4375 -10.035156 83.976562 -5.875 76.875 -2.9375 C 69.78125 0 61.484375 1.46875 51.984375 1.46875 C 41.210938 1.46875 31.394531 -0.316406 22.53125 -3.890625 C 13.675781 -7.460938 7.535156 -12.140625 4.109375 -17.921875 C 3.617188 -18.898438 3.375 -19.632812 3.375 -20.125 C 3.375 -21.101562 3.914062 -21.984375 5 -22.765625 L 20.125 -33.1875 C 21.195312 -33.875 22.175781 -34.21875 23.0625 -34.21875 C 24.132812 -34.21875 25.015625 -33.773438 25.703125 -32.890625 C 29.023438 -28.585938 32.398438 -25.550781 35.828125 -23.78125 C 39.253906 -22.019531 43.804688 -21.140625 49.484375 -21.140625 C 54.972656 -21.140625 59.304688 -21.898438 62.484375 -23.421875 C 65.671875 -24.941406 67.265625 -27.023438 67.265625 -29.671875 C 67.265625 -31.523438 66.476562 -33.132812 64.90625 -34.5 C 63.34375 -35.875 61.046875 -36.90625 58.015625 -37.59375 L 35.6875 -43.03125 C 26.875 -45.1875 19.875 -49.222656 14.6875 -55.140625 C 9.5 -61.066406 6.90625 -67.894531 6.90625 -75.625 C 6.90625 -81.988281 8.765625 -87.835938 12.484375 -93.171875 C 16.203125 -98.515625 21.488281 -102.726562 28.34375 -105.8125 C 35.195312 -108.894531 43.128906 -110.4375 52.140625 -110.4375 C 60.953125 -110.4375 69.125 -108.992188 76.65625 -106.109375 C 84.195312 -103.222656 89.632812 -99.378906 92.96875 -94.578125 C 93.644531 -93.691406 93.984375 -92.859375 93.984375 -92.078125 C 93.984375 -91.390625 93.644531 -90.753906 92.96875 -90.171875 L 76.953125 -78.5625 C 76.460938 -78.175781 75.925781 -77.984375 75.34375 -77.984375 C 74.65625 -77.984375 73.722656 -78.570312 72.546875 -79.75 Z M 72.546875 -79.75 "/></g></g></g><g fill="#d35400" fill-opacity="1"><g transform="translate(298.059395, 408.305173)"><g><path d="M 100.453125 -43.03125 C 100.453125 -26.96875 96.390625 -15.535156 88.265625 -8.734375 C 80.140625 -1.929688 68.535156 1.46875 53.453125 1.46875 C 36.515625 1.46875 24.445312 -2.445312 17.25 -10.28125 C 10.0625 -18.113281 6.46875 -30.007812 6.46875 -45.96875 L 6.46875 -105.59375 C 6.46875 -106.664062 6.710938 -107.492188 7.203125 -108.078125 C 7.691406 -108.671875 8.375 -108.96875 9.25 -108.96875 L 37.15625 -108.96875 C 38.914062 -108.96875 39.796875 -107.941406 39.796875 -105.890625 L 39.796875 -42.4375 C 39.796875 -35.195312 41.191406 -29.957031 43.984375 -26.71875 C 46.773438 -23.488281 50.765625 -21.875 55.953125 -21.875 C 61.046875 -21.875 65.15625 -23.488281 68.28125 -26.71875 C 71.414062 -29.957031 72.984375 -35.347656 72.984375 -42.890625 L 72.984375 -105.59375 C 72.984375 -107.84375 73.914062 -108.96875 75.78125 -108.96875 L 97.8125 -108.96875 C 99.570312 -108.96875 100.453125 -107.941406 100.453125 -105.890625 Z M 100.453125 -43.03125 "/></g></g></g><g fill="#d35400" fill-opacity="1"><g transform="translate(404.973826, 408.305173)"><g><path d="M 56.546875 -110.4375 C 64.671875 -110.4375 72.007812 -108.992188 78.5625 -106.109375 C 85.125 -103.222656 90.507812 -99.234375 94.71875 -94.140625 C 98.9375 -89.046875 101.679688 -83.21875 102.953125 -76.65625 C 103.242188 -75.476562 103.390625 -74.550781 103.390625 -73.875 C 103.390625 -72.988281 103.21875 -72.398438 102.875 -72.109375 C 102.53125 -71.816406 101.921875 -71.617188 101.046875 -71.515625 L 75.34375 -69.90625 C 74.363281 -69.90625 73.722656 -70.078125 73.421875 -70.421875 C 73.128906 -70.765625 72.835938 -71.523438 72.546875 -72.703125 C 71.671875 -77.398438 70.054688 -81.09375 67.703125 -83.78125 C 65.347656 -86.476562 61.921875 -87.828125 57.421875 -87.828125 C 51.640625 -87.828125 47.179688 -85.28125 44.046875 -80.1875 C 40.921875 -75.09375 39.359375 -66.816406 39.359375 -55.359375 C 39.359375 -43.515625 40.800781 -35.09375 43.6875 -30.09375 C 46.570312 -25.101562 51.101562 -22.609375 57.28125 -22.609375 C 62.46875 -22.609375 66.894531 -23.929688 70.5625 -26.578125 C 74.238281 -29.222656 77.300781 -33.628906 79.75 -39.796875 C 80.039062 -40.679688 80.867188 -41.125 82.234375 -41.125 C 82.921875 -41.125 83.460938 -41.070312 83.859375 -40.96875 L 102.21875 -37.296875 C 103.6875 -36.804688 104.421875 -35.679688 104.421875 -33.921875 C 104.421875 -31.179688 102.726562 -26.945312 99.34375 -21.21875 C 95.96875 -15.488281 90.679688 -10.273438 83.484375 -5.578125 C 76.296875 -0.878906 67.21875 1.46875 56.25 1.46875 C 45.875 1.46875 36.769531 -1 28.9375 -5.9375 C 21.101562 -10.882812 15.054688 -17.691406 10.796875 -26.359375 C 6.535156 -35.023438 4.40625 -44.890625 4.40625 -55.953125 C 4.40625 -66.921875 6.535156 -76.515625 10.796875 -84.734375 C 15.054688 -92.960938 21.125 -99.300781 29 -103.75 C 36.882812 -108.207031 46.066406 -110.4375 56.546875 -110.4375 Z M 56.546875 -110.4375 "/></g></g></g><g fill="#d35400" fill-opacity="1"><g transform="translate(513.210005, 408.305173)"><g><path d="M 100.453125 -43.03125 C 100.453125 -26.96875 96.390625 -15.535156 88.265625 -8.734375 C 80.140625 -1.929688 68.535156 1.46875 53.453125 1.46875 C 36.515625 1.46875 24.445312 -2.445312 17.25 -10.28125 C 10.0625 -18.113281 6.46875 -30.007812 6.46875 -45.96875 L 6.46875 -105.59375 C 6.46875 -106.664062 6.710938 -107.492188 7.203125 -108.078125 C 7.691406 -108.671875 8.375 -108.96875 9.25 -108.96875 L 37.15625 -108.96875 C 38.914062 -108.96875 39.796875 -107.941406 39.796875 -105.890625 L 39.796875 -42.4375 C 39.796875 -35.195312 41.191406 -29.957031 43.984375 -26.71875 C 46.773438 -23.488281 50.765625 -21.875 55.953125 -21.875 C 61.046875 -21.875 65.15625 -23.488281 68.28125 -26.71875 C 71.414062 -29.957031 72.984375 -35.347656 72.984375 -42.890625 L 72.984375 -105.59375 C 72.984375 -107.84375 73.914062 -108.96875 75.78125 -108.96875 L 97.8125 -108.96875 C 99.570312 -108.96875 100.453125 -107.941406 100.453125 -105.890625 Z M 100.453125 -43.03125 "/></g></g></g><g fill="#d35400" fill-opacity="1"><g transform="translate(620.124422, 408.305173)"><g><path d="M 102.953125 -4.703125 C 103.140625 -4.304688 103.234375 -3.765625 103.234375 -3.078125 C 103.234375 -2.203125 102.960938 -1.46875 102.421875 -0.875 C 101.890625 -0.289062 101.1875 0 100.3125 0 L 71.8125 0 C 69.757812 0 68.4375 -1.023438 67.84375 -3.078125 L 54.046875 -40.96875 C 53.753906 -41.757812 53.265625 -42.347656 52.578125 -42.734375 C 51.890625 -43.128906 50.859375 -43.328125 49.484375 -43.328125 L 42.734375 -43.328125 C 42.148438 -43.328125 41.707031 -43.128906 41.40625 -42.734375 C 41.113281 -42.347656 40.96875 -42.003906 40.96875 -41.703125 L 40.96875 -4.265625 C 40.96875 -2.691406 40.578125 -1.585938 39.796875 -0.953125 C 39.015625 -0.316406 37.789062 0 36.125 0 L 11.453125 0 C 9.984375 0 8.976562 -0.289062 8.4375 -0.875 C 7.90625 -1.46875 7.640625 -2.398438 7.640625 -3.671875 L 7.640625 -105.59375 C 7.640625 -107.84375 8.566406 -108.96875 10.421875 -108.96875 L 59.484375 -108.96875 C 73.671875 -108.96875 84.679688 -106.25 92.515625 -100.8125 C 100.347656 -95.382812 104.265625 -87.722656 104.265625 -77.828125 C 104.265625 -71.078125 102.476562 -65.054688 98.90625 -59.765625 C 95.332031 -54.484375 90.707031 -50.765625 85.03125 -48.609375 C 84.445312 -48.316406 84.15625 -47.828125 84.15625 -47.140625 C 84.15625 -46.847656 84.25 -46.40625 84.4375 -45.8125 Z M 58.15625 -65.203125 C 61.875 -65.203125 64.738281 -66.15625 66.75 -68.0625 C 68.757812 -69.976562 69.765625 -72.550781 69.765625 -75.78125 C 69.765625 -79.40625 68.5625 -82.21875 66.15625 -84.21875 C 63.757812 -86.226562 60.800781 -87.234375 57.28125 -87.234375 L 44.34375 -87.234375 C 43.070312 -87.234375 42.191406 -87.007812 41.703125 -86.5625 C 41.210938 -86.125 40.96875 -85.367188 40.96875 -84.296875 L 40.96875 -68.296875 C 40.96875 -67.210938 41.140625 -66.425781 41.484375 -65.9375 C 41.828125 -65.445312 42.488281 -65.203125 43.46875 -65.203125 Z M 58.15625 -65.203125 "/></g></g></g><g fill="#d35400" fill-opacity="1"><g transform="translate(728.654333, 408.305173)"><g><path d="M 72.546875 -79.75 C 70.203125 -82.289062 67.679688 -84.242188 64.984375 -85.609375 C 62.296875 -86.984375 58.40625 -87.671875 53.3125 -87.671875 C 48.21875 -87.671875 44.445312 -86.9375 42 -85.46875 C 39.550781 -84 38.328125 -82.238281 38.328125 -80.1875 C 38.328125 -76.65625 41.460938 -74.160156 47.734375 -72.703125 L 72.109375 -66.375 C 81.015625 -64.125 87.71875 -60.179688 92.21875 -54.546875 C 96.726562 -48.921875 98.984375 -42.191406 98.984375 -34.359375 C 98.984375 -27.117188 97.070312 -20.804688 93.25 -15.421875 C 89.4375 -10.035156 83.976562 -5.875 76.875 -2.9375 C 69.78125 0 61.484375 1.46875 51.984375 1.46875 C 41.210938 1.46875 31.394531 -0.316406 22.53125 -3.890625 C 13.675781 -7.460938 7.535156 -12.140625 4.109375 -17.921875 C 3.617188 -18.898438 3.375 -19.632812 3.375 -20.125 C 3.375 -21.101562 3.914062 -21.984375 5 -22.765625 L 20.125 -33.1875 C 21.195312 -33.875 22.175781 -34.21875 23.0625 -34.21875 C 24.132812 -34.21875 25.015625 -33.773438 25.703125 -32.890625 C 29.023438 -28.585938 32.398438 -25.550781 35.828125 -23.78125 C 39.253906 -22.019531 43.804688 -21.140625 49.484375 -21.140625 C 54.972656 -21.140625 59.304688 -21.898438 62.484375 -23.421875 C 65.671875 -24.941406 67.265625 -27.023438 67.265625 -29.671875 C 67.265625 -31.523438 66.476562 -33.132812 64.90625 -34.5 C 63.34375 -35.875 61.046875 -36.90625 58.015625 -37.59375 L 35.6875 -43.03125 C 26.875 -45.1875 19.875 -49.222656 14.6875 -55.140625 C 9.5 -61.066406 6.90625 -67.894531 6.90625 -75.625 C 6.90625 -81.988281 8.765625 -87.835938 12.484375 -93.171875 C 16.203125 -98.515625 21.488281 -102.726562 28.34375 -105.8125 C 35.195312 -108.894531 43.128906 -110.4375 52.140625 -110.4375 C 60.953125 -110.4375 69.125 -108.992188 76.65625 -106.109375 C 84.195312 -103.222656 89.632812 -99.378906 92.96875 -94.578125 C 93.644531 -93.691406 93.984375 -92.859375 93.984375 -92.078125 C 93.984375 -91.390625 93.644531 -90.753906 92.96875 -90.171875 L 76.953125 -78.5625 C 76.460938 -78.175781 75.925781 -77.984375 75.34375 -77.984375 C 74.65625 -77.984375 73.722656 -78.570312 72.546875 -79.75 Z M 72.546875 -79.75 "/></g></g></g><g fill="#d35400" fill-opacity="1"><g transform="translate(831.603559, 408.305173)"><g><path d="M 6.3125 0 C 5.53125 0 4.894531 -0.265625 4.40625 -0.796875 C 3.914062 -1.335938 3.671875 -2.097656 3.671875 -3.078125 C 3.671875 -3.765625 3.816406 -4.550781 4.109375 -5.4375 L 39.65625 -105.59375 C 40.144531 -106.863281 40.679688 -107.742188 41.265625 -108.234375 C 41.859375 -108.722656 42.789062 -108.96875 44.0625 -108.96875 L 72.984375 -108.96875 C 74.160156 -108.96875 75.210938 -108.597656 76.140625 -107.859375 C 77.078125 -107.128906 77.789062 -106.175781 78.28125 -105 L 113.515625 -5 C 113.710938 -4.207031 113.8125 -3.617188 113.8125 -3.234375 C 113.8125 -2.347656 113.613281 -1.585938 113.21875 -0.953125 C 112.832031 -0.316406 112.25 0 111.46875 0 L 82.6875 0 C 81.019531 0 79.941406 -0.832031 79.453125 -2.5 L 73.71875 -19.390625 C 73.425781 -20.066406 73.15625 -20.523438 72.90625 -20.765625 C 72.664062 -21.015625 72.203125 -21.140625 71.515625 -21.140625 L 40.390625 -21.140625 C 39.210938 -21.140625 38.476562 -20.601562 38.1875 -19.53125 L 32.15625 -2.203125 C 31.570312 -0.734375 30.398438 0 28.640625 0 Z M 64.171875 -46.109375 C 65.253906 -46.109375 65.796875 -46.597656 65.796875 -47.578125 C 65.796875 -47.773438 65.695312 -48.265625 65.5 -49.046875 L 56.6875 -74.15625 C 56.488281 -74.644531 56.191406 -74.890625 55.796875 -74.890625 C 55.410156 -74.890625 55.117188 -74.644531 54.921875 -74.15625 L 45.96875 -49.203125 C 45.769531 -48.804688 45.671875 -48.316406 45.671875 -47.734375 C 45.671875 -46.648438 46.257812 -46.109375 47.4375 -46.109375 Z M 64.171875 -46.109375 "/></g></g></g><g fill="#d35400" fill-opacity="1"><g transform="translate(948.94509, 408.305173)"><g><path d="M 7.640625 -105.59375 C 7.640625 -106.664062 7.882812 -107.492188 8.375 -108.078125 C 8.863281 -108.671875 9.546875 -108.96875 10.421875 -108.96875 L 38.328125 -108.96875 C 40.085938 -108.96875 40.96875 -107.941406 40.96875 -105.890625 L 40.96875 -26.140625 C 40.96875 -25.359375 41.085938 -24.816406 41.328125 -24.515625 C 41.578125 -24.222656 42.046875 -24.078125 42.734375 -24.078125 L 86.9375 -24.078125 C 89.1875 -24.078125 90.3125 -23.148438 90.3125 -21.296875 L 90.3125 -3.234375 C 90.3125 -2.253906 89.992188 -1.46875 89.359375 -0.875 C 88.722656 -0.289062 87.816406 0 86.640625 0 L 11.609375 0 C 10.140625 0 9.109375 -0.289062 8.515625 -0.875 C 7.929688 -1.46875 7.640625 -2.398438 7.640625 -3.671875 Z M 7.640625 -105.59375 "/></g></g></g><g fill="#d35400" fill-opacity="1"><g transform="translate(1043.376389, 408.305173)"><g><path d="M 7.640625 -105.59375 C 7.640625 -107.84375 8.566406 -108.96875 10.421875 -108.96875 L 89.734375 -108.96875 C 91.492188 -108.96875 92.375 -107.941406 92.375 -105.890625 L 92.234375 -88.84375 C 92.234375 -86.207031 90.957031 -84.890625 88.40625 -84.890625 L 44.34375 -84.890625 C 42.09375 -84.890625 40.96875 -83.957031 40.96875 -82.09375 L 40.96875 -69.609375 C 40.96875 -68.628906 41.210938 -67.867188 41.703125 -67.328125 C 42.191406 -66.796875 42.832031 -66.53125 43.625 -66.53125 L 70.046875 -66.53125 C 72.109375 -66.53125 73.140625 -65.550781 73.140625 -63.59375 L 73.140625 -45.375 C 73.140625 -43.71875 72.257812 -42.890625 70.5 -42.890625 L 43.328125 -42.890625 C 42.640625 -42.890625 42.070312 -42.691406 41.625 -42.296875 C 41.1875 -41.898438 40.96875 -41.410156 40.96875 -40.828125 L 40.96875 -26.140625 C 40.96875 -25.359375 41.085938 -24.816406 41.328125 -24.515625 C 41.578125 -24.222656 42.046875 -24.078125 42.734375 -24.078125 L 90.46875 -24.078125 C 92.625 -24.078125 93.703125 -23.148438 93.703125 -21.296875 L 93.703125 -3.234375 C 93.703125 -2.253906 93.40625 -1.46875 92.8125 -0.875 C 92.226562 -0.289062 91.347656 0 90.171875 0 L 11.609375 0 C 10.140625 0 9.109375 -0.289062 8.515625 -0.875 C 7.929688 -1.46875 7.640625 -2.398438 7.640625 -3.671875 Z M 7.640625 -105.59375 "/></g></g></g><g fill="#d35400" fill-opacity="1"><g transform="translate(1141.919751, 408.305173)"><g><path d="M 72.546875 -79.75 C 70.203125 -82.289062 67.679688 -84.242188 64.984375 -85.609375 C 62.296875 -86.984375 58.40625 -87.671875 53.3125 -87.671875 C 48.21875 -87.671875 44.445312 -86.9375 42 -85.46875 C 39.550781 -84 38.328125 -82.238281 38.328125 -80.1875 C 38.328125 -76.65625 41.460938 -74.160156 47.734375 -72.703125 L 72.109375 -66.375 C 81.015625 -64.125 87.71875 -60.179688 92.21875 -54.546875 C 96.726562 -48.921875 98.984375 -42.191406 98.984375 -34.359375 C 98.984375 -27.117188 97.070312 -20.804688 93.25 -15.421875 C 89.4375 -10.035156 83.976562 -5.875 76.875 -2.9375 C 69.78125 0 61.484375 1.46875 51.984375 1.46875 C 41.210938 1.46875 31.394531 -0.316406 22.53125 -3.890625 C 13.675781 -7.460938 7.535156 -12.140625 4.109375 -17.921875 C 3.617188 -18.898438 3.375 -19.632812 3.375 -20.125 C 3.375 -21.101562 3.914062 -21.984375 5 -22.765625 L 20.125 -33.1875 C 21.195312 -33.875 22.175781 -34.21875 23.0625 -34.21875 C 24.132812 -34.21875 25.015625 -33.773438 25.703125 -32.890625 C 29.023438 -28.585938 32.398438 -25.550781 35.828125 -23.78125 C 39.253906 -22.019531 43.804688 -21.140625 49.484375 -21.140625 C 54.972656 -21.140625 59.304688 -21.898438 62.484375 -23.421875 C 65.671875 -24.941406 67.265625 -27.023438 67.265625 -29.671875 C 67.265625 -31.523438 66.476562 -33.132812 64.90625 -34.5 C 63.34375 -35.875 61.046875 -36.90625 58.015625 -37.59375 L 35.6875 -43.03125 C 26.875 -45.1875 19.875 -49.222656 14.6875 -55.140625 C 9.5 -61.066406 6.90625 -67.894531 6.90625 -75.625 C 6.90625 -81.988281 8.765625 -87.835938 12.484375 -93.171875 C 16.203125 -98.515625 21.488281 -102.726562 28.34375 -105.8125 C 35.195312 -108.894531 43.128906 -110.4375 52.140625 -110.4375 C 60.953125 -110.4375 69.125 -108.992188 76.65625 -106.109375 C 84.195312 -103.222656 89.632812 -99.378906 92.96875 -94.578125 C 93.644531 -93.691406 93.984375 -92.859375 93.984375 -92.078125 C 93.984375 -91.390625 93.644531 -90.753906 92.96875 -90.171875 L 76.953125 -78.5625 C 76.460938 -78.175781 75.925781 -77.984375 75.34375 -77.984375 C 74.65625 -77.984375 73.722656 -78.570312 72.546875 -79.75 Z M 72.546875 -79.75 "/></g></g></g><path stroke-linecap="butt" transform="matrix(0.75, 0, 0, 0.75, 422.110879, 456.688489)" fill="none" stroke-linejoin="miter" d="M -0.00200495 1.998682 L 794.373029 1.998682 " stroke="#000000" stroke-width="4" stroke-opacity="1" stroke-miterlimit="4"/><g clip-path="url(#224a5d3ef3)"><path fill="#000000" d="M 691.375 236.453125 C 692 236.128906 692.652344 235.824219 693.316406 235.53125 C 695.714844 234.476562 696.808594 231.671875 695.757812 229.265625 C 694.707031 226.859375 691.90625 225.769531 689.507812 226.816406 C 688.675781 227.183594 687.867188 227.566406 687.0625 227.976562 C 678.160156 232.550781 673.253906 238.65625 673.253906 245.171875 C 673.253906 251.71875 678.160156 257.832031 687.070312 262.386719 C 695.816406 266.851562 707.449219 269.308594 719.832031 269.308594 C 732.214844 269.308594 743.847656 266.851562 752.585938 262.386719 C 761.496094 257.828125 766.402344 251.714844 766.402344 245.171875 C 766.402344 238.660156 761.496094 232.554688 752.585938 227.972656 C 751.671875 227.503906 750.71875 227.058594 749.746094 226.636719 C 747.335938 225.601562 744.546875 226.710938 743.511719 229.121094 C 742.476562 231.535156 743.585938 234.335938 745.992188 235.371094 C 746.78125 235.710938 747.539062 236.070312 748.265625 236.441406 C 754.652344 239.722656 756.917969 243.191406 756.917969 245.167969 C 756.917969 247.164062 754.652344 250.648438 748.28125 253.910156 C 740.847656 257.707031 730.746094 259.796875 719.832031 259.796875 C 708.917969 259.796875 698.8125 257.707031 691.382812 253.910156 C 685.003906 250.652344 682.742188 247.164062 682.742188 245.167969 C 682.742188 243.195312 685.003906 239.722656 691.375 236.453125 Z M 691.375 236.453125 " fill-opacity="1" fill-rule="nonzero"/></g><g clip-path="url(#2c868fa3fc)"><path fill="#000000" d="M 720.457031 88.578125 C 720.328125 88.566406 720.199219 88.558594 720.070312 88.558594 L 719.59375 88.558594 C 719.460938 88.558594 719.332031 88.566406 719.210938 88.578125 C 687.957031 89.039062 662.589844 114.820312 662.589844 146.128906 C 662.097656 177.273438 685.863281 205.777344 703.21875 226.589844 C 708.308594 232.691406 712.703125 237.964844 715.675781 242.332031 C 716.558594 243.628906 718.027344 244.40625 719.59375 244.40625 L 720.074219 244.40625 C 721.640625 244.40625 723.109375 243.628906 723.992188 242.332031 C 726.960938 237.964844 731.359375 232.691406 736.449219 226.585938 C 753.800781 205.777344 777.566406 177.269531 777.074219 146.203125 C 777.074219 114.824219 751.707031 89.042969 720.457031 88.578125 Z M 729.167969 220.484375 C 725.683594 224.667969 722.515625 228.46875 719.832031 231.941406 C 717.148438 228.46875 713.980469 224.667969 710.492188 220.488281 C 694.09375 200.820312 671.640625 173.882812 672.074219 146.203125 C 672.074219 119.90625 693.410156 98.320312 719.632812 98.082031 C 719.699219 98.082031 719.765625 98.082031 719.832031 98.078125 C 719.898438 98.082031 719.960938 98.082031 720.027344 98.082031 C 746.25 98.320312 767.585938 119.90625 767.585938 146.277344 C 768.023438 173.882812 745.566406 200.816406 729.167969 220.484375 Z M 729.167969 220.484375 " fill-opacity="1" fill-rule="nonzero"/></g><path fill="#000000" d="M 719.832031 125.1875 C 708.238281 125.316406 698.867188 134.671875 698.867188 146.210938 C 698.867188 157.75 708.230469 167.105469 719.832031 167.234375 C 731.433594 167.105469 740.792969 157.75 740.792969 146.210938 C 740.792969 134.671875 731.421875 125.316406 719.832031 125.1875 Z M 719.832031 125.1875 " fill-opacity="1" fill-rule="nonzero"/></svg>